<svg height="512" viewBox="0 0 60 58" width="512" xmlns="http://www.w3.org/2000/svg"><g id="011---Astronaut" fill="none"><path id="Shape" d="m3 50h-2c-.55228475 0-1-.4477153-1-1s.44771525-1 1-1h2c.55228475 0 1 .4477153 1 1s-.44771525 1-1 1z" fill="#cbb292"/><path id="Shape" d="m32.72 50h-5.44c-.5522847 0-1-.4477153-1-1s.4477153-1 1-1h5.44c.5522847 0 1 .4477153 1 1s-.4477153 1-1 1z" fill="#cbb292"/><path id="Shape" d="m59 50h-19c-.5522847 0-1-.4477153-1-1s.4477153-1 1-1h19c.5522847 0 1 .4477153 1 1s-.4477153 1-1 1z" fill="#cbb292"/><path id="Shape" d="m20 50h-13c-.55228475 0-1-.4477153-1-1s.44771525-1 1-1h13c.5522847 0 1 .4477153 1 1s-.4477153 1-1 1z" fill="#cbb292"/><path id="Shape" d="m46 55h-1c-.5522847 0-1-.4477153-1-1s.4477153-1 1-1h1c.5522847 0 1 .4477153 1 1s-.4477153 1-1 1z" fill="#a59078"/><path id="Shape" d="m56 55h-6c-.5522847 0-1-.4477153-1-1s.4477153-1 1-1h6c.5522847 0 1 .4477153 1 1s-.4477153 1-1 1z" fill="#a59078"/><path id="Shape" d="m6 55h-2c-.55228475 0-1-.4477153-1-1s.44771525-1 1-1h2c.55228475 0 1 .4477153 1 1s-.44771525 1-1 1z" fill="#a59078"/><path id="Shape" d="m18 55h-8c-.55228475 0-1-.4477153-1-1s.44771525-1 1-1h8c.5522847 0 1 .4477153 1 1s-.4477153 1-1 1z" fill="#a59078"/><path id="Shape" d="m23 37-2.85 11.24c-.2839223 1.1361197-.1600559 2.3358544.35 3.39l2.45 5c.6550945 1.1483228 2.0630732 1.6286838 3.2834193 1.1202063 1.2203461-.5084776 1.8706783-1.8464681 1.5165807-3.1202063-1.25-4.39-1.25-2.92 1-10.66z" fill="#2c3e50"/><path id="Shape" d="m36.94 36.91 2.91 11.33c.2839223 1.1361197.1600559 2.3358544-.35 3.39l-2.45 5c-.6550945 1.1483228-2.0630732 1.6286838-3.2834193 1.1202063-1.2203461-.5084776-1.8706783-1.8464681-1.5165807-3.1202063 1.25-4.39 1.25-2.92-1-10.66z" fill="#2c3e50"/><path id="Shape" d="m23 27h-8.39l-1.75-5.57c-.5375856-1.5251907-2.187325-2.3498048-3.72990864-1.8643764-1.54258364.4854285-2.42280147 2.1061829-1.99009136 3.6643764l2.42 7.67c.39824923 1.2669474 1.5821049 2.1212762 2.91 2.1h10.53z" fill="#2c3e50"/><path id="Shape" d="m34 33h13.53c1.3278951.0212762 2.5117508-.8330526 2.91-2.1l2.42-7.69c.4327101-1.5581935-.4475077-3.1789479-1.9900914-3.6643764-1.5425836-.4854284-3.192323.3391857-3.7299086 1.8643764l-1.75 5.59h-14.39z" fill="#2c3e50"/><g fill="#f0c419"><path id="Shape" d="m6 9c-.55228475 0-1-.44771525-1-1v-4c0-.55228475.44771525-1 1-1s1 .44771525 1 1v4c0 .55228475-.44771525 1-1 1z"/><path id="Shape" d="m8 7h-4c-.55228475 0-1-.44771525-1-1s.44771525-1 1-1h4c.55228475 0 1 .44771525 1 1s-.44771525 1-1 1z"/><path id="Shape" d="m55 12c-.5522847 0-1-.4477153-1-1v-4c0-.55228475.4477153-1 1-1s1 .44771525 1 1v4c0 .5522847-.4477153 1-1 1z"/><path id="Shape" d="m57 10h-4c-.5522847 0-1-.44771525-1-1s.4477153-1 1-1h4c.5522847 0 1 .44771525 1 1s-.4477153 1-1 1z"/><path id="Shape" d="m8 43c-.55228475 0-1-.4477153-1-1v-4c0-.5522847.44771525-1 1-1s1 .4477153 1 1v4c0 .5522847-.44771525 1-1 1z"/><path id="Shape" d="m10 41h-4c-.55228475 0-1-.4477153-1-1s.44771525-1 1-1h4c.5522847 0 1 .4477153 1 1s-.4477153 1-1 1z"/></g><path id="Shape" d="m38 27.75c1.8102144 2.3839268 2.8561092 5.2601374 3 8.25 0 5.3-4.46 7.62-9.71 8-6.1.4-12.29-1.77-12.29-8 .1438908-2.9898626 1.1897856-5.8660732 3-8.25z" fill="#35495e"/><path id="Shape" d="m31.47 34.29c.2686345.9054023.4363203 1.8377353.5 2.78.0373667.5365484.4924346.947435 1.03.93h3c.2815726.0011429.5505792-.116476.7409324-.3239611.1903533-.207485.2844117-.4856069.2590676-.7660389-.0738344-1.1038062-.2923711-2.1931279-.65-3.24-.141-.4033622-.5227115-.6725692-.95-.67h-2.97c-.3171168-.0009433-.615885.1485821-.8052079.4029848-.189323.2544027-.2467578.5835251-.1547921.8870152z" fill="#f0c419"/><path id="Shape" d="m24 33c-.5522847 0-1-.4477153-1-1s.4477153-1 1-1 1 .4477153 1 1-.4477153 1-1 1z" fill="#fff"/><path id="Shape" d="m27 33c-.5522847 0-1-.4477153-1-1s.4477153-1 1-1 1 .4477153 1 1-.4477153 1-1 1z" fill="#fff"/><path id="Shape" d="m24 36c-.5522847 0-1-.4477153-1-1s.4477153-1 1-1 1 .4477153 1 1-.4477153 1-1 1z" fill="#fff"/><path id="Shape" d="m38.7 23.58c3.05 3.05-1.7 5.42-5.7 5.42h-6c-4 0-8.75-2.37-5.7-5.42z" fill="#3f5c6c"/><ellipse id="Oval" cx="30" cy="13" fill="#2c3e50" rx="15" ry="13"/><ellipse id="Oval" cx="30" cy="11.5" fill="#35495e" rx="14.9" ry="11.5"/><path id="Shape" d="m45 14c0 4.42-6.72 8-15 8s-15-3.58-15-8c0-6.66 15.08-10.71 25-6 3.07 1.5 5 3.63 5 6z" fill="#f29c1f"/><path id="Shape" d="m40 8c-.06 6.76-15.2 10.66-25 6 .06-6.76 15.2-10.66 25-6z" fill="#f0c419"/><path id="Shape" d="m20 14c-.5522847 0-1-.4477153-1-1 0-.41.25-4 9-4 .5522847 0 1 .44771525 1 1 0 .5522847-.4477153 1-1 1-5.5 0-6.92 1.49-7 2.06-.0317798.5287239-.4703227.9409542-1 .94z" fill="#f9eab0"/><path id="Shape" d="m13.44 23.24-5.54 2.38-.76-2.41c-.43271011-1.5581935.44750772-3.1789479 1.99009136-3.6643764 1.54258364-.4854284 3.19232304.3391857 3.72990864 1.8643764z" fill="#547580"/><path id="Shape" d="m52.86 23.21-.76 2.41-5.54-2.38.58-1.83c.5375856-1.5251907 2.187325-2.3498048 3.7299086-1.8643764 1.5425837.4854285 2.4228015 2.1061829 1.9900914 3.6643764z" fill="#547580"/></g></svg>