<svg id="Layer_1" height="512" viewBox="0 0 128 128" width="512" xmlns="http://www.w3.org/2000/svg" data-name="Layer 1"><path d="m51 42.249c0-7.5-8.875-17.032-14.375-18.058 2.875 10.725 0 18.058 0 18.058z" fill="#4482c3"/><path d="m114.917 58.454h-27.917a1.75 1.75 0 0 1 0-3.5h27.917a1.75 1.75 0 0 1 0 3.5z" fill="#cdcdcd"/><path d="m47.539 87.039h-5.25a1.75 1.75 0 0 1 0-3.5h5.25a10.261 10.261 0 0 0 10.25-10.25v-1.5a1.75 1.75 0 0 1 3.5 0v1.5a13.766 13.766 0 0 1 -13.75 13.75z" fill="#cdcdcd"/><path d="m45.66 77.349a37.2 37.2 0 0 0 -2.01 22.7l.85 3.76-4.53-1.46-3.6-1.16-7.65-2.47a4.11 4.11 0 0 1 -2.06-1.49 4.059 4.059 0 0 1 -.78-2.41 9.009 9.009 0 0 1 .62-3.28l8.5-21.63 5.66-.41 3.7-.27 4.89-.35z" fill="#e8e8e8"/><path d="m37.016 88.09a1.644 1.644 0 0 1 -.21-.013 1.749 1.749 0 0 1 -1.53-1.945 38.927 38.927 0 0 1 2.791-10.514l2.942-6.942a1.75 1.75 0 1 1 3.222 1.365l-2.94 6.94a35.427 35.427 0 0 0 -2.54 9.568 1.749 1.749 0 0 1 -1.735 1.541z" fill="#cdcdcd"/><path d="m39.97 102.349-3.6-1.16-.41-1.8c-.23-1.03-.42-2.08-.57-3.11a1.753 1.753 0 0 1 3.47-.5c.13.95.31 1.9.52 2.83l.64 2.81a1.719 1.719 0 0 1 -.05.93z" fill="#cdcdcd"/><path d="m84.545 44h-11.17v25.41h11.17a12.7 12.7 0 0 0 12.705-12.71 12.7 12.7 0 0 0 -12.705-12.7z" fill="#e8e8e8"/><path d="m6.5 55.5v2.41a12 12 0 0 0 12 12h18.125v-26.41h-18.125a12 12 0 0 0 -12 12z" fill="#e8e8e8"/><path d="m29.17 39.579a12 12 0 0 0 -12 12v10.25a12 12 0 0 0 12 12h57.83v-34.25z" fill="#3b70a8"/><g fill="#4482c3"><path d="m81 39.579h6v34.25h-6z"/><circle cx="115.5" cy="56.704" r="6"/><path d="m31.583 64.454a1.75 1.75 0 0 1 -1.75-1.75v-12a1.75 1.75 0 0 1 3.5 0v12a1.75 1.75 0 0 1 -1.75 1.75z"/><path d="m39.917 64.454a1.75 1.75 0 0 1 -1.75-1.75v-12a1.75 1.75 0 0 1 3.5 0v12a1.75 1.75 0 0 1 -1.75 1.75z"/><path d="m48.25 64.454a1.75 1.75 0 0 1 -1.75-1.754v-12a1.75 1.75 0 0 1 3.5 0v12a1.75 1.75 0 0 1 -1.75 1.754z"/></g></svg>