<svg id="Layer_1" height="512" viewBox="0 0 128 128" width="512" xmlns="http://www.w3.org/2000/svg" data-name="Layer 1"><g fill="#e8e8e8"><path d="m80.777 95.458-8.451-28.718a1.75 1.75 0 0 0 -1.679-1.256h-7.064v-2.75a1.75 1.75 0 0 0 -3.5 0v9a1.75 1.75 0 1 0 3.5 0v-2.75h5.755l8.082 27.462a1.75 1.75 0 0 0 1.68 1.254 1.749 1.749 0 0 0 1.679-2.244z"/><path d="m92 97.726a1.75 1.75 0 0 1 -1.75-1.75v-61.594a1.75 1.75 0 0 1 3.5 0v61.594a1.75 1.75 0 0 1 -1.75 1.75z"/><path d="m22.542 95.952v-34.5h8.625l6.916 18.5h21.875l4.709 16z"/></g><path d="m64.67 95.951h-42.13v-16h37.42z" fill="#67537e"/><path d="m14.937 94.801h98.125v10h-98.125z" fill="#7d6599"/><path d="m7 96.245a12.872 12.872 0 1 1 8.815 15.927 12.873 12.873 0 0 1 -8.815-15.927z" fill="#e8e8e8"/><path d="m19.381 103.676a3.908 3.908 0 0 1 -1.076-.154 3.873 3.873 0 0 1 1.064-7.595 3.945 3.945 0 0 1 1.076.153 3.874 3.874 0 0 1 -1.064 7.6z" fill="#cdcdcd"/><path d="m121 96.245a12.872 12.872 0 1 0 -8.815 15.927 12.873 12.873 0 0 0 8.815-15.927z" fill="#e8e8e8"/><path d="m108.618 103.676a3.873 3.873 0 0 1 -1.062-7.6 3.934 3.934 0 0 1 1.076-.153 3.875 3.875 0 0 1 -.014 7.749z" fill="#cdcdcd"/><path d="m93.8 34.08a1.75 1.75 0 0 1 -1.239-2.987l14-14.007a1.75 1.75 0 1 1 2.476 2.475l-14 14.006a1.745 1.745 0 0 1 -1.237.513z" fill="#e8e8e8"/><path d="m90.027 18.382-2.692 2.693a12.532 12.532 0 0 0 17.723 17.725l2.692-2.7z" fill="#7d6599"/><circle cx="107.8" cy="18.324" fill="#67537e" r="3"/></svg>