<svg id="Layer_1" height="512" viewBox="0 0 128 128" width="512" xmlns="http://www.w3.org/2000/svg" data-name="Layer 1"><path d="m110.508 51.846a28.323 28.323 0 0 1 -11.808 3.88s17.647-18.69 22.8-49.226c-30.536 5.153-49.226 22.8-49.226 22.8a28.323 28.323 0 0 1 3.88-11.809c-8.196 4.109-23.254 16.376-37.236 30.495a40.288 40.288 0 0 1 2.715-12.253c-9.666 4.956-34.433 46.635-35.033 60.921-.653 7.479 1.8 13.984 6.279 18.463s10.984 6.932 18.463 6.279c14.286-.6 55.965-25.363 60.921-35.029a40.288 40.288 0 0 1 -12.253 2.715c14.123-13.982 26.39-29.04 30.498-37.236z" fill="#d75a4a"/><path d="m94.891 52.733a1.749 1.749 0 0 1 -1.323-2.895 91.057 91.057 0 0 0 14.056-23.322 1.75 1.75 0 0 1 3.225 1.361 94.743 94.743 0 0 1 -14.634 24.252 1.75 1.75 0 0 1 -1.324.604z" fill="#bc4f41"/><circle cx="30.989" cy="97.011" fill="#e8e8e8" r="14.872"/></svg>