<svg id="Layer_1" height="512" viewBox="0 0 128 128" width="512" xmlns="http://www.w3.org/2000/svg" data-name="Layer 1"><path d="m108.56 80.61a51.591 51.591 0 1 1 -50.47-62.29c1.05 0 2.1.03 3.14.1l.77 26.41h9.5l6 17.44 13.5 1.73z" fill="#e8e8e8"/><g fill="#4482c3"><path d="m45.2 119.876a51.652 51.652 0 0 1 -37.991-41.387 9.145 9.145 0 0 1 1.651-.96 5.7 5.7 0 0 1 2.844-.592 6.015 6.015 0 0 1 2.889 1.256c5.32 3.849 6.971 11.026 11.214 16.042 2.693 3.185 6.335 5.392 9.771 7.765s6.836 5.1 8.64 8.873a14.23 14.23 0 0 1 .982 9.003z"/><path d="m41.58 33.468a10.614 10.614 0 0 1 -.377 2.853c-1.256 5.159-3.912 10.111-8.155 13.3-3.616 2.718-8.29 4.109-11.143 7.617-1.355 1.668-2.2 3.7-3.58 5.347a12.826 12.826 0 0 1 -8.837 4.154 18.213 18.213 0 0 1 -2.888-.021 51.6 51.6 0 0 1 30.27-43.846q1.211 2.477 2.557 4.89c.996 1.794 2.073 3.652 2.153 5.706z"/><path d="m52.167 70.327c6.544-3.631 11.322.842 17.187 3.653s12.485 2.4 16.876 2.3 9.961 6.867 2.8 12.518-7.1 7.121-7.161 11.589-3.139 5.482-5.429 4.567-6.37-10.3-16.368-14.452-17.58-14.329-7.905-20.175z"/></g><path d="m121.38 54.39-18.56-2.31-13.5-1.73 6.52-14.19 4.91 2.17 2.96-19.31a51.484 51.484 0 0 1 17.67 35.37z" fill="#cdcdcd"/><path d="m96.88 14.01-23.06 18.9-.77-26.41a51.237 51.237 0 0 1 23.83 7.51z" fill="#cdcdcd"/><path d="m115.916 69.583a1.742 1.742 0 0 1 -.774-.181l-14.167-7a1.75 1.75 0 1 1 1.55-3.138l14.167 7a1.75 1.75 0 0 1 -.776 3.319z" fill="#cdcdcd"/></svg>