<svg id="Layer_1" height="512" viewBox="0 0 128 128" width="512" xmlns="http://www.w3.org/2000/svg" data-name="Layer 1"><path d="m61 69.5h6v18.875h-6z" fill="#e8e8e8"/><rect fill="#4482c3" height="6" rx="3" width="35.385" x="6.5" y="28.375"/><rect fill="#4482c3" height="6" rx="3" width="35.385" x="86.115" y="28.375"/><path d="m92.566 69.333h-28.566-28.566l-14.242-14.087v-31.054h6v28.55l10.708 10.591h26.1 26.1l10.708-10.591v-28.55h6v31.054z" fill="#e8e8e8"/><path d="m92.566 68.172h-57.132l-10.681 10.564a12.007 12.007 0 0 0 -3.561 8.532v17.039h6v-14.535a12 12 0 0 1 3.562-8.532l7.146-7.068h52.2l7.146 7.068a12 12 0 0 1 3.562 8.532v14.535h6v-17.039a12.007 12.007 0 0 0 -3.561-8.532z" fill="#e8e8e8"/><path d="m49.25 86.615h29.5v17.692h-29.5z" fill="#4482c3"/><path d="m86.875 51h-45.75a6 6 0 0 0 -6 6v19.192h57.75v-19.192a6 6 0 0 0 -6-6z" fill="#4482c3"/><path d="m80.21 51-3.27 8.38h-25.88l-3.28-8.38z" fill="#3b70a8"/><g fill="#e8e8e8"><path d="m79.167 71.941h-30.334a1.75 1.75 0 0 1 0-3.5h30.334a1.75 1.75 0 0 1 0 3.5z"/><circle cx="58" cy="95.461" r="3"/><path d="m72.735 93.344h-5a1.75 1.75 0 0 1 0-3.5h5a1.75 1.75 0 1 1 0 3.5z"/></g></svg>