<svg id="Layer_1" height="512" viewBox="0 0 128 128" width="512" xmlns="http://www.w3.org/2000/svg" data-name="Layer 1"><path d="m121.5 64a57.5 57.5 0 1 1 -57.5-57.5 57.742 57.742 0 0 1 57.5 57.5z" fill="#e8e8e8"/><g fill="#4482c3"><path d="m49.63 119.69a57.573 57.573 0 0 1 -42.34-46.13 10.261 10.261 0 0 1 1.84-1.07 6.358 6.358 0 0 1 3.17-.66 6.694 6.694 0 0 1 3.22 1.4c5.93 4.29 7.77 12.29 12.5 17.88 3 3.55 7.06 6.01 10.89 8.66s7.62 5.69 9.63 9.89a15.86 15.86 0 0 1 1.09 10.03z"/><path d="m45.6 23.38a11.823 11.823 0 0 1 -.42 3.18c-1.4 5.75-4.36 11.27-9.09 14.82-4.03 3.03-9.24 4.58-12.42 8.49-1.51 1.86-2.45 4.13-3.99 5.96a14.3 14.3 0 0 1 -9.85 4.63 20.363 20.363 0 0 1 -3.22-.02 57.509 57.509 0 0 1 33.74-48.87q1.35 2.76 2.85 5.45c1.11 2 2.31 4.07 2.4 6.36z"/><path d="m121.4 60.66a11.083 11.083 0 0 0 -4.4-2.81c-3.84-1.27-7.97-.03-11.94.72a49.887 49.887 0 0 1 -18.07.09c-4.39-.8-9.21-2.66-10.84-6.81-1.08-2.77-.47-5.9-1.04-8.82-1.15-5.82-6.65-9.64-9.7-14.73a18.906 18.906 0 0 1 1.58-21.73h.01a57.507 57.507 0 0 1 54.4 54.09z"/><path d="m57.4 64.463c7.294-4.048 12.62.938 19.157 4.071s13.916 2.679 18.81 2.561 11.1 7.653 3.121 13.953-7.917 7.936-7.981 12.916-3.5 6.111-6.051 5.09-7.1-11.479-18.244-16.108-19.595-15.968-8.812-22.483z"/></g></svg>