<svg id="Layer_1" height="512" viewBox="0 0 128 128" width="512" xmlns="http://www.w3.org/2000/svg" data-name="Layer 1"><g fill="#4482c3"><circle cx="87.285" cy="37.45" r="4.03"/><circle cx="103.808" cy="92.36" r="4.03"/><circle cx="24.192" cy="48.274" r="4.03"/><circle cx="40.715" cy="90.55" r="4.03"/><path d="m89.255 105.416h-1.25v-1.25a1.75 1.75 0 0 0 -3.5 0v1.25h-1.25a1.75 1.75 0 0 0 0 3.5h1.25v1.25a1.75 1.75 0 0 0 3.5 0v-1.25h1.25a1.75 1.75 0 0 0 0-3.5z"/><path d="m106.808 18.25h-1.25v-1.25a1.75 1.75 0 0 0 -3.5 0v1.25h-1.25a1.75 1.75 0 0 0 0 3.5h1.25v1.25a1.75 1.75 0 0 0 3.5 0v-1.25h1.25a1.75 1.75 0 0 0 0-3.5z"/><path d="m59 15.25h-1.25v-1.25a1.75 1.75 0 1 0 -3.5 0v1.25h-1.25a1.75 1.75 0 1 0 0 3.5h1.25v1.25a1.75 1.75 0 0 0 3.5 0v-1.25h1.25a1.75 1.75 0 0 0 0-3.5z"/><circle cx="64" cy="64" r="8"/></g><path d="m21.824 95.078a1.717 1.717 0 0 1 -.774-.182 1.748 1.748 0 0 1 -.794-2.343 158.836 158.836 0 0 1 15.25-24.41c3.368-4.283 6.385-7.944 9.248-11.229a1.75 1.75 0 1 1 2.638 2.3c-2.825 3.239-5.8 6.856-9.109 11.057a155.257 155.257 0 0 0 -14.889 23.829 1.749 1.749 0 0 1 -1.57.978z" fill="#e8e8e8"/><path d="m81.926 71.686a1.75 1.75 0 0 1 -1.318-2.9c2.825-3.239 5.8-6.856 9.109-11.057a155.257 155.257 0 0 0 14.889-23.829 1.75 1.75 0 0 1 3.138 1.551 158.836 158.836 0 0 1 -15.25 24.41c-3.368 4.283-6.385 7.944-9.248 11.229a1.75 1.75 0 0 1 -1.32.596z" fill="#e8e8e8"/><path d="m14.109 123.328a9.466 9.466 0 0 1 -6.1-1.829c-9.563-7.777 3.351-36.118 20.358-58.836 11.809-15.021 20.833-24.346 30.198-31.209a1.75 1.75 0 1 1 2.07 2.822c-9.094 6.666-17.915 15.792-29.493 30.518-19.755 26.388-26.777 49.231-20.927 53.99 4.467 3.63 21.991-2.155 38.234-19.154.778-.814 1.907-1.905 3.214-3.168 1.983-1.917 4.451-4.3 6.66-6.659a1.75 1.75 0 0 1 2.554 2.397c-2.268 2.419-4.771 4.838-6.781 6.782-1.281 1.237-2.387 2.306-3.117 3.07-12.324 12.893-27.461 21.276-36.87 21.276z" fill="#e8e8e8"/><path d="m68.4 96.982a1.75 1.75 0 0 1 -1.036-3.161c9.095-6.666 17.916-15.792 29.494-30.521 19.755-26.388 26.777-49.232 20.927-53.991-4.468-3.632-21.991 2.156-38.234 19.155-.779.814-1.909 1.906-3.217 3.171-1.982 1.917-4.449 4.3-6.658 6.656a1.75 1.75 0 1 1 -2.552-2.4c2.266-2.417 4.768-4.835 6.777-6.777 1.283-1.239 2.39-2.31 3.12-3.074 15.579-16.297 35.662-25.385 42.972-19.44 9.563 7.777-3.351 36.118-20.358 58.836-11.811 15.02-20.835 24.344-30.2 31.208a1.748 1.748 0 0 1 -1.035.338z" fill="#e8e8e8"/></svg>