<svg id="Layer_1" height="512" viewBox="0 0 128 128" width="512" xmlns="http://www.w3.org/2000/svg" data-name="Layer 1"><path d="m121.5 64a57.5 57.5 0 1 1 -57.5-57.5 57.742 57.742 0 0 1 57.5 57.5z" fill="#f3d55b"/><g fill="#e8e8e8"><path d="m14.04 35.53a56.4 56.4 0 0 1 8.13-10.97c23.72 1.78 61.12 3.53 86.22 2.89a57.42 57.42 0 0 1 7.31 11.35c-27.35 1.42-77.22-1.12-101.66-3.27z"/><path d="m114.29 91.88a57.006 57.006 0 0 1 -8.86 11.98c-24.94.61-61.82-1.11-85.45-2.87a57.01 57.01 0 0 1 -7.9-12.25c14.82 1.28 38.49 2.69 60.91 3.31 6.97.18 13.82.3 20.25.31 7.84.01 15.04-.13 21.05-.48z"/><path d="m121.5 64a57.482 57.482 0 0 1 -.5 7.59c-28.3 1.83-84.98-.63-114.3-2.82-.13-1.57-.2-3.16-.2-4.77a57.274 57.274 0 0 1 .41-6.85c29.5 2.2 86.32 4.66 114.44 2.79.1 1.34.15 2.69.15 4.06z"/></g><ellipse cx="83.103" cy="92.349" fill="#f3ba33" rx="10.134" ry="5.477"/></svg>