<svg id="Layer_1" height="512" viewBox="0 0 128 128" width="512" xmlns="http://www.w3.org/2000/svg" data-name="Layer 1"><path d="m97.333 87.167-16.666-62.975h-16.667-16.667l-16.666 62.975z" fill="#f3d55b"/><path d="m85.688 68.372a1.749 1.749 0 0 1 -1.69-1.3l-4.19-15.834a1.749 1.749 0 0 1 3.382-.894l4.191 15.834a1.749 1.749 0 0 1 -1.244 2.138 1.694 1.694 0 0 1 -.449.056z" fill="#f3ba33"/><path d="m71.6 41.776a7.909 7.909 0 1 0 -5.416 9.786 7.908 7.908 0 0 0 5.416-9.786z" fill="#d75a4a"/><path d="m67 119.75h-1.25v-30.917a1.75 1.75 0 0 0 -3.5 0v30.917h-1.25a1.75 1.75 0 0 0 0 3.5h6a1.75 1.75 0 0 0 0-3.5z" fill="#e8e8e8"/><path d="m103.808 119.75h-1.832l-12.29-29.425a1.751 1.751 0 0 0 -3.231 1.35l11.727 28.075h-.374a1.75 1.75 0 1 0 0 3.5h6a1.75 1.75 0 0 0 0-3.5z" fill="#e8e8e8"/><path d="m40.6 89.385a1.753 1.753 0 0 0 -2.29.94l-12.286 29.425h-1.832a1.75 1.75 0 0 0 0 3.5h6a1.75 1.75 0 1 0 0-3.5h-.374l11.727-28.075a1.751 1.751 0 0 0 -.945-2.29z" fill="#e8e8e8"/><path d="m24.192 87.167h79.615v17.147h-79.615z" fill="#bc4f41"/><path d="m68.667 6.5h-9.334a12 12 0 0 0 -12 12v5.692h33.334v-5.692a12 12 0 0 0 -12-12z" fill="#f3d55b"/><path d="m80.67 18.5v5.69h-33.34v-5.69a12.039 12.039 0 0 1 .24-2.42h32.86a12.039 12.039 0 0 1 .24 2.42z" fill="#f3ba33"/><path d="m51.667 65.5h24.667v21.667h-24.667z" fill="#d75a4a"/><g fill="#e8e8e8"><circle cx="38.583" cy="95.74" r="3"/><circle cx="55.528" cy="95.74" r="3"/><circle cx="72.472" cy="95.74" r="3"/><circle cx="89.417" cy="95.74" r="3"/></g></svg>