<svg id="Layer_1" height="512" viewBox="0 0 128 128" width="512" xmlns="http://www.w3.org/2000/svg" data-name="Layer 1"><circle cx="26.404" cy="101.596" fill="#f3d55b" r="19.904"/><g fill="#f3ba33"><path d="m28.18 74.5a1.75 1.75 0 0 1 -1.238-2.987l9.058-9.057a1.75 1.75 0 0 1 2.476 2.475l-9.055 9.056a1.745 1.745 0 0 1 -1.241.513z"/><path d="m45.047 57.63a1.75 1.75 0 0 1 -1.237-2.987l43.413-43.42a1.749 1.749 0 1 1 2.477 2.477l-43.416 43.418a1.744 1.744 0 0 1 -1.237.512z"/><path d="m55.25 101.57a1.75 1.75 0 0 1 -1.237-2.988l60.287-60.282a1.749 1.749 0 0 1 2.474 2.474l-60.29 60.281a1.744 1.744 0 0 1 -1.234.515z"/><path d="m46.83 82.92a1.75 1.75 0 0 1 -1.237-2.987l62.17-62.17a1.749 1.749 0 0 1 2.474 2.474l-62.17 62.17a1.741 1.741 0 0 1 -1.237.513z"/><path d="m116 13.75a1.75 1.75 0 0 1 -1.237-2.987l5.5-5.5a1.749 1.749 0 1 1 2.474 2.474l-5.5 5.5a1.741 1.741 0 0 1 -1.237.513z"/><path d="m100.112 43.175a1.75 1.75 0 0 1 -1.237-2.987l15.425-15.425a1.749 1.749 0 0 1 2.474 2.474l-15.424 15.426a1.748 1.748 0 0 1 -1.238.512z"/><path d="m52.46 90.825a1.746 1.746 0 0 1 -1.75-1.745v-.01a1.748 1.748 0 0 1 .513-1.237l38.477-38.469a1.75 1.75 0 0 1 2.475 2.475l-38.425 38.415a1.744 1.744 0 0 1 -1.29.571z"/><path d="m38.93 77.29a1.751 1.751 0 0 1 -1.141-3.083l62.974-62.984a1.749 1.749 0 0 1 2.474 2.474l-63.07 63.08a1.748 1.748 0 0 1 -1.237.513z"/><path d="m24.831 97.458a1.749 1.749 0 0 1 -1.75-1.75 1.252 1.252 0 0 0 -1.25-1.25 1.75 1.75 0 0 1 0-3.5 4.756 4.756 0 0 1 4.75 4.75 1.75 1.75 0 0 1 -1.75 1.75z"/><circle cx="37.42" cy="106.096" r="1.5"/><circle cx="33.936" cy="112.583" r="1.5"/><circle cx="30.67" cy="106.808" r="1.5"/><path d="m24.831 114.333a1.749 1.749 0 0 1 -1.75-1.75 1.252 1.252 0 0 0 -1.25-1.25 1.75 1.75 0 1 1 0-3.5 4.756 4.756 0 0 1 4.75 4.75 1.75 1.75 0 0 1 -1.75 1.75z"/><path d="m36.936 99.24a1.749 1.749 0 0 1 -1.75-1.75 1.252 1.252 0 0 0 -1.25-1.25 1.75 1.75 0 1 1 0-3.5 4.756 4.756 0 0 1 4.75 4.75 1.75 1.75 0 0 1 -1.75 1.75z"/></g></svg>