<svg id="Layer_1" height="512" viewBox="0 0 128 128" width="512" xmlns="http://www.w3.org/2000/svg" data-name="Layer 1"><path d="m37.833 62.583a1.749 1.749 0 0 1 -1.75-1.75v-33.666a1.75 1.75 0 0 1 3.5 0v33.666a1.749 1.749 0 0 1 -1.75 1.75z" fill="#e8e8e8"/><path d="m6.5 81.692v27.227h91a24 24 0 0 0 24-24v-3.227z" fill="#f3d55b"/><path d="m93.022 54.784h-86.522v26.908h115l-11.767-17.892a20 20 0 0 0 -16.711-9.016z" fill="#d75a4a"/><path d="m39.748 62.534h-22.625a1.75 1.75 0 0 1 0-3.5h22.625a1.75 1.75 0 0 1 0 3.5z" fill="#bc4f41"/><path d="m12.855 105.069a12.872 12.872 0 1 1 8.815 15.931 12.872 12.872 0 0 1 -8.815-15.931z" fill="#e8e8e8"/><path d="m25.232 112.5a3.908 3.908 0 0 1 -1.076-.154 3.874 3.874 0 0 1 1.063-7.6 3.908 3.908 0 0 1 1.076.154 3.874 3.874 0 0 1 -1.063 7.6z" fill="#cdcdcd"/><path d="m115.145 105.069a12.872 12.872 0 1 0 -8.815 15.931 12.872 12.872 0 0 0 8.815-15.931z" fill="#e8e8e8"/><path d="m102.768 112.5a3.892 3.892 0 1 1 1.076-.154 3.887 3.887 0 0 1 -1.076.154z" fill="#cdcdcd"/><path d="m84.812 105.069a12.872 12.872 0 1 0 -8.812 15.931 12.872 12.872 0 0 0 8.812-15.931z" fill="#e8e8e8"/><path d="m72.435 112.5a3.892 3.892 0 1 1 1.076-.154 3.887 3.887 0 0 1 -1.076.154z" fill="#cdcdcd"/><path d="m40.239 25.256a1.75 1.75 0 0 1 -1.239-2.987l14-14.006a1.75 1.75 0 0 1 2.477 2.474l-14 14.006a1.748 1.748 0 0 1 -1.238.513z" fill="#e8e8e8"/><path d="m36.463 9.559-2.692 2.692a12.532 12.532 0 0 0 17.723 17.723l2.693-2.692z" fill="#d75a4a"/><circle cx="54.237" cy="9.5" fill="#bc4f41" r="3"/><g fill="#e8e8e8"><path d="m77.085 63.238h14.816v10h-14.816z"/><path d="m53.585 63.238h14.816v10h-14.816z"/></g></svg>