<svg id="Layer_1" height="512" viewBox="0 0 128 128" width="512" xmlns="http://www.w3.org/2000/svg" data-name="Layer 1"><path d="m121.5 64a57.5 57.5 0 1 1 -57.5-57.5 57.742 57.742 0 0 1 57.5 57.5z" fill="#4482c3"/><g fill="#3b70a8"><path d="m41.25 46.28c-11.88-.25-21.53-.8-31.4-1.66a57.415 57.415 0 0 1 11.39-19.06 238.094 238.094 0 0 0 29.64 2.81 352.32 352.32 0 0 0 56.25-2.39 57.171 57.171 0 0 1 10.64 17.62c-23.65 2.52-52.57 3.18-76.52 2.68z"/><path d="m115.87 88.81c-.4.87-.84 1.73-1.3 2.58a57.452 57.452 0 0 1 -10.56 13.9 352 352 0 0 0 -56.32-2.4 238.8 238.8 0 0 0 -24.11 2 57.24 57.24 0 0 1 -11.17-15.48c12.29-1.2 23.48-1.96 37.97-2.26 20.34-.42 44.26-.01 65.49 1.66z"/><ellipse cx="46.222" cy="69.477" rx="10.134" ry="5.477"/></g></svg>