<svg id="Layer_1" height="512" viewBox="0 0 128 128" width="512" xmlns="http://www.w3.org/2000/svg" data-name="Layer 1"><path d="m82.131 15.024h10.859v18h-10.859z" fill="#d75a4a" transform="matrix(.805 .593 -.593 .805 31.334 -47.268)"/><path d="m85.142 10.887h17.692v8.833h-17.692z" fill="#bc4f41" transform="matrix(.805 .593 -.593 .805 27.414 -52.783)"/><path d="m24.192 64.278h79.615v57.222h-79.615z" fill="#d75a4a"/><g fill="#e8e8e8"><path d="m64 91.39a10.833 10.833 0 0 1 10.833 10.833v19.277a0 0 0 0 1 0 0h-21.666a0 0 0 0 1 0 0v-19.277a10.833 10.833 0 0 1 10.833-10.833z"/><path d="m31.541 76.894h15.54v10.774h-15.54z"/><path d="m80.919 76.894h15.54v10.774h-15.54z"/></g><path d="m78.33 23.67a39.81 39.81 0 0 0 -54.14 37.15v3.46h79.62v-3.46a39.806 39.806 0 0 0 -25.48-37.15z" fill="#4482c3"/><path d="m31.542 53.179a1.752 1.752 0 0 1 -1.681-2.241 35.833 35.833 0 0 1 11.039-17.129 1.75 1.75 0 0 1 2.284 2.652 32.326 32.326 0 0 0 -9.963 15.459 1.751 1.751 0 0 1 -1.679 1.259z" fill="#3b70a8"/><path d="m121.5 123.25h-115a1.75 1.75 0 0 1 0-3.5h115a1.75 1.75 0 0 1 0 3.5z" fill="#d75a4a"/></svg>