<svg id="Layer_1" height="512" viewBox="0 0 128 128" width="512" xmlns="http://www.w3.org/2000/svg" data-name="Layer 1"><path d="m64 123.25a59.235 59.235 0 1 1 52.108-31.026 59.318 59.318 0 0 1 -52.108 31.026zm0-115a55.795 55.795 0 1 0 55.75 55.75 55.813 55.813 0 0 0 -55.75-55.75z" fill="#e8e8e8"/><path d="m64 105.558a41.552 41.552 0 1 1 36.548-21.758 41.605 41.605 0 0 1 -36.548 21.758zm0-79.616a38.088 38.088 0 1 0 38.058 38.058 38.1 38.1 0 0 0 -38.058-38.058z" fill="#e8e8e8"/><g fill="#7d6599"><circle cx="103.808" cy="60.514" r="6"/><circle cx="97.808" cy="18.192" r="6"/><circle cx="25.585" cy="71.811" r="6"/><circle cx="28.397" cy="109.808" r="6"/></g><circle cx="64" cy="64" fill="#67537e" r="13.205"/></svg>