<svg id="Layer_1" height="512" viewBox="0 0 128 128" width="512" xmlns="http://www.w3.org/2000/svg" data-name="Layer 1"><g fill="#e8e8e8"><path d="m64 94.875a1.75 1.75 0 0 1 -1.75-1.75v-50.375a1.75 1.75 0 0 1 3.5 0v50.375a1.75 1.75 0 0 1 -1.75 1.75z"/><path d="m64 85.5a1.75 1.75 0 0 1 -1.209-3.015l38.031-36.359a1.75 1.75 0 0 1 2.419 2.529l-38.032 36.36a1.744 1.744 0 0 1 -1.209.485z"/><path d="m64 85.5a1.744 1.744 0 0 1 -1.209-.485l-38.032-36.36a1.75 1.75 0 0 1 2.419-2.529l38.031 36.359a1.75 1.75 0 0 1 -1.209 3.015z"/></g><path d="m64 6.5a39.808 39.808 0 0 0 -39.808 39.808v1.785h79.616v-1.785a39.808 39.808 0 0 0 -39.808-39.808z" fill="#d75a4a"/><path d="m103.81 46.31v1.78h-39.81v-41.59a39.805 39.805 0 0 1 39.81 39.81z" fill="#f3d55b"/><path d="m64 6.5c-10.993 0-19.9 17.823-19.9 39.808v1.785h39.8v-1.785c0-21.985-8.907-39.808-19.9-39.808z" fill="#f3d55b"/><path d="m83.9 46.31v1.78h-19.9v-41.59c10.99 0 19.9 17.82 19.9 39.81z" fill="#d75a4a"/><path d="m47.282 115.5v-11.078l16.718-11.297 16.718 11.3v11.075a6 6 0 0 1 -6 6h-21.436a6 6 0 0 1 -6-6z" fill="#d75a4a"/><circle cx="64" cy="110.425" fill="#e8e8e8" r="3.839"/></svg>