<svg id="Layer_1" height="512" viewBox="0 0 128 128" width="512" xmlns="http://www.w3.org/2000/svg" data-name="Layer 1"><path d="m115.868 62.68a48.536 48.536 0 1 1 -48.536-48.536 48.722 48.722 0 0 1 48.536 48.536z" fill="#4482c3"/><g fill="#3b70a8"><path d="m109.869 64.431a1.75 1.75 0 0 1 -1.75-1.75 40.4 40.4 0 0 0 -8.1-24.367 1.75 1.75 0 0 1 2.8-2.095 43.873 43.873 0 0 1 8.8 26.462 1.751 1.751 0 0 1 -1.75 1.75z"/><path d="m104.743 84.691a1.728 1.728 0 0 1 -.833-.212 1.749 1.749 0 0 1 -.7-2.372 40.8 40.8 0 0 0 2.814-6.477 1.75 1.75 0 1 1 3.319 1.109 44.266 44.266 0 0 1 -3.056 7.036 1.749 1.749 0 0 1 -1.544.916z"/><circle cx="109.93" cy="14.5" r="8"/><circle cx="14.767" cy="103.808" r="8"/><circle cx="117.47" cy="117.47" r="4.03"/><circle cx="18.796" cy="10.558" r="4.03"/><circle cx="14.767" cy="29.804" r="4.03"/></g><circle cx="77.904" cy="82.941" fill="#e8e8e8" r="6"/><ellipse cx="47.282" cy="49.973" fill="#e8e8e8" rx="10.134" ry="5.477"/></svg>