<svg id="Layer_1" height="512" viewBox="0 0 128 128" width="512" xmlns="http://www.w3.org/2000/svg" data-name="Layer 1"><path d="m121.5 64a57.5 57.5 0 1 1 -57.5-57.5 57.742 57.742 0 0 1 57.5 57.5z" fill="#e8e8e8"/><path d="m47.438 114.519a1.747 1.747 0 0 1 -.564-.094 53.428 53.428 0 0 1 -23.13-15.6 1.75 1.75 0 0 1 2.647-2.291 49.916 49.916 0 0 0 21.609 14.578 1.75 1.75 0 0 1 -.565 3.407z" fill="#cdcdcd"/><path d="m121.5 64a57.742 57.742 0 0 1 -1.1 11.24c-.35 1.77-.79 3.52-1.3 5.23-.37 1.27-.8 2.51-1.26 3.74a56.785 56.785 0 0 1 -3.27 7.18 57.743 57.743 0 0 1 -14 16.98c-7.42-1.66-21.07-12.66-21.82-19.45s9.77-21.72 4.13-25.75c-10.05-7.17-34.47 26.97-48.84 15.65-15.87-12.65-11.93-46.63-11.48-54.68a57.5 57.5 0 0 1 85.09 2.43l.01.01 2.21 2.74.01.01a57.286 57.286 0 0 1 11.62 34.67z" fill="#cdcdcd"/><g fill="#e8e8e8"><path d="m109.88 29.33a1.665 1.665 0 0 1 -.28.18c-.39.2-9.22 4.62-24.3 4.62-.93 0-1.89-.01-2.86-.05a1.751 1.751 0 1 1 .12-3.5c14.2.53 23.22-3.16 25.09-4.01z"/><path d="m42.167 37.667a1.75 1.75 0 0 1 -1.667-2.288 8.6 8.6 0 0 1 5.552-5.652 8.947 8.947 0 0 1 7.617.756 1.751 1.751 0 1 1 -2.008 2.868 5.532 5.532 0 0 0 -4.5-.307 5.115 5.115 0 0 0 -3.335 3.411 1.75 1.75 0 0 1 -1.659 1.212z"/><path d="m119.1 80.47c-.37 1.27-.8 2.51-1.26 3.74-2.93.89-10.21 2.91-15.97 2.91a17.823 17.823 0 0 1 -3-.23 1.75 1.75 0 1 1 .59-3.45c6.33 1.08 18.44-2.92 18.56-2.96a1.735 1.735 0 0 1 1.08-.01z"/><path d="m102.5 54.75a1.748 1.748 0 0 1 -1.582-1 2.073 2.073 0 0 0 -1.329-.759 6.663 6.663 0 0 0 -4.094.2 1.749 1.749 0 0 1 -1.995-2.879c1.5-1.041 4.571-1.348 6.991-.7a5.227 5.227 0 0 1 3.586 2.642 1.751 1.751 0 0 1 -1.58 2.5z"/></g></svg>