<svg id="Layer_1" height="512" viewBox="0 0 128 128" width="512" xmlns="http://www.w3.org/2000/svg" data-name="Layer 1"><g fill="#e8e8e8"><path d="m64 123.25a59.239 59.239 0 1 1 52.108-31.026 59.317 59.317 0 0 1 -52.108 31.026zm0-115a55.795 55.795 0 1 0 55.75 55.75 55.814 55.814 0 0 0 -55.75-55.75z"/><path d="m64 103.25a39.242 39.242 0 1 1 34.525-20.558 39.294 39.294 0 0 1 -34.525 20.558zm0-75a35.791 35.791 0 1 0 35.75 35.75 35.79 35.79 0 0 0 -35.75-35.75z"/><path d="m64 88.25a24.25 24.25 0 1 1 24.25-24.25 24.624 24.624 0 0 1 -.464 4.771 24.007 24.007 0 0 1 -2.448 6.773 24.261 24.261 0 0 1 -21.338 12.706zm0-45a20.75 20.75 0 1 0 18.262 30.625 20.542 20.542 0 0 0 2.091-5.784 21.165 21.165 0 0 0 .397-4.091 20.774 20.774 0 0 0 -20.75-20.75z"/></g><circle cx="57.556" cy="41.581" fill="#4482c3" r="4.03"/><circle cx="84.007" cy="96.507" fill="#4482c3" r="6"/><circle cx="64" cy="64" fill="#4482c3" r="8.846"/><path d="m123.25 64h-59.25l41.88-41.88a59.1 59.1 0 0 1 17.37 41.88z" fill="#3b70a8"/></svg>