<svg id="Layer_1" height="512" viewBox="0 0 128 128" width="512" xmlns="http://www.w3.org/2000/svg" data-name="Layer 1"><path d="m103 45.5a1.749 1.749 0 0 1 -1.75-1.75v-24.775a10.725 10.725 0 1 0 -21.449 0v12.3a14.225 14.225 0 1 1 -28.449 0v-12.3a10.724 10.724 0 1 0 -21.448 0v24.775a1.75 1.75 0 0 1 -3.5 0v-24.775a14.224 14.224 0 1 1 28.448 0v12.3a10.725 10.725 0 1 0 21.449 0v-12.3a14.225 14.225 0 1 1 28.449 0v24.775a1.75 1.75 0 0 1 -1.75 1.75z" fill="#e8e8e8"/><path d="m90.52 40.32v68.69a12.49 12.49 0 1 0 24.98 0v-68.69z" fill="#7d6599"/><g fill="#e8e8e8"><path d="m115.5 52.92v3.5h-6.17a1.75 1.75 0 0 1 0-3.5z"/><path d="m115.5 63.58v3.5h-6.17a1.75 1.75 0 0 1 0-3.5z"/><path d="m115.5 74.25v3.5h-6.17a1.75 1.75 0 1 1 0-3.5z"/><path d="m115.5 88.42h-6.17a1.75 1.75 0 0 1 0-3.5h6.17z"/><path d="m115.5 95.58v3.5h-6.17a1.75 1.75 0 0 1 0-3.5z"/></g><path d="m121.5 42.066h-36.979a1.75 1.75 0 0 1 0-3.5h36.979a1.75 1.75 0 0 1 0 3.5z" fill="#7d6599"/><path d="m37.165 37.033h-18a1.75 1.75 0 0 1 0-3.5h18a1.75 1.75 0 1 1 0 3.5z" fill="#4482c3"/><path d="m44.82 90.76h-33.31a5 5 0 0 1 -4.13-7.82l14.78-21.65v-26.01h12v26.01l14.79 21.65a5 5 0 0 1 -4.13 7.82z" fill="#4482c3"/><path d="m34.16 39.44v3.5h-4.49a1.75 1.75 0 0 1 0-3.5z" fill="#e8e8e8"/><path d="m34.16 47.05v3.5h-4.49a1.75 1.75 0 0 1 0-3.5z" fill="#e8e8e8"/><path d="m34.16 54.67v3.5h-4.49a1.75 1.75 0 0 1 0-3.5z" fill="#e8e8e8"/></svg>