<svg id="Layer_1" height="512" viewBox="0 0 128 128" width="512" xmlns="http://www.w3.org/2000/svg" data-name="Layer 1"><path d="m96.668 76.589a1.749 1.749 0 0 1 -1.75-1.75v-12.921a4.254 4.254 0 0 0 -4.25-4.25h-8.668a1.75 1.75 0 0 1 0-3.5h8.667a7.759 7.759 0 0 1 7.75 7.75v12.921a1.749 1.749 0 0 1 -1.749 1.75z" fill="#e8e8e8"/><path d="m100.668 81.587a1.749 1.749 0 0 1 -1.75-1.75v-1a2.25 2.25 0 0 0 -4.5 0v1a1.75 1.75 0 0 1 -3.5 0v-1a5.75 5.75 0 0 1 11.5 0v1a1.749 1.749 0 0 1 -1.75 1.75z" fill="#e8e8e8"/><path d="m82 52.92h7.562v6h-7.562z" fill="#3b70a8"/><path d="m31.332 76.589a1.75 1.75 0 0 1 -1.75-1.75v-12.921a7.759 7.759 0 0 1 7.75-7.75h8.668a1.75 1.75 0 0 1 0 3.5h-8.668a4.255 4.255 0 0 0 -4.25 4.25v12.921a1.75 1.75 0 0 1 -1.75 1.75z" fill="#e8e8e8"/><path d="m38.437 52.92h7.563v6h-7.563z" fill="#3b70a8"/><path d="m35.332 81.587a1.75 1.75 0 0 1 -1.75-1.75v-1a2.25 2.25 0 0 0 -4.5 0v1a1.75 1.75 0 0 1 -3.5 0v-1a5.75 5.75 0 0 1 11.5 0v1a1.75 1.75 0 0 1 -1.75 1.75z" fill="#e8e8e8"/><path d="m48 78.75h32v16.711h-32z" fill="#3b70a8"/><path d="m64 22.333a1.75 1.75 0 0 1 -1.75-1.75v-11.083a1.75 1.75 0 1 1 3.5 0v11.083a1.75 1.75 0 0 1 -1.75 1.75z" fill="#e8e8e8"/><path d="m58 35.181h12v21.198h-12z" fill="#e8e8e8" transform="matrix(-1 0 0 -1 128 91.56)"/><circle cx="64" cy="10.53" fill="#4482c3" r="4.03"/><path d="m89.9 93.692h-51.8a13.9 13.9 0 1 0 0 27.808h51.8a13.9 13.9 0 1 0 0-27.808z" fill="#e8e8e8"/><path d="m44.096 48.017h39.808v34.858h-39.808z" fill="#4482c3"/><path d="m52.571 57.542h22.858v27.808h-22.858z" fill="#e8e8e8" transform="matrix(0 1 -1 0 135.446 7.446)"/><rect fill="#4482c3" height="20.021" rx="10.01" width="39.808" x="44.096" y="19.979"/><path d="m90.833 109.346h-53.666a1.75 1.75 0 0 1 0-3.5h53.666a1.75 1.75 0 0 1 0 3.5z" fill="#3b70a8"/><path d="m35.919 100a7.909 7.909 0 1 0 9.786 5.416 7.91 7.91 0 0 0 -9.786-5.416z" fill="#4482c3"/><path d="m61.815 100a7.909 7.909 0 1 0 9.786 5.416 7.908 7.908 0 0 0 -9.786-5.416z" fill="#4482c3"/><path d="m97.5 105.411a7.909 7.909 0 1 0 -5.417 9.787 7.909 7.909 0 0 0 5.417-9.787z" fill="#4482c3"/><g fill="#e8e8e8"><circle cx="54.379" cy="29.99" r="3"/><circle cx="73.621" cy="29.99" r="3"/><path d="m62.175 52.191a2.581 2.581 0 1 0 3.65 0 2.582 2.582 0 0 0 -3.65 0z"/><path d="m52.554 52.191a2.582 2.582 0 1 0 3.651 0 2.582 2.582 0 0 0 -3.651 0z"/><path d="m75.446 52.191a2.582 2.582 0 1 1 -3.651 0 2.582 2.582 0 0 1 3.651 0z"/></g><path d="m71.75 69.7h-15.5a1.75 1.75 0 0 1 0-3.5h15.5a1.75 1.75 0 0 1 0 3.5z" fill="#3b70a8"/><path d="m71.75 76.692h-15.5a1.75 1.75 0 0 1 0-3.5h15.5a1.75 1.75 0 0 1 0 3.5z" fill="#3b70a8"/></svg>