<svg id="Layer_1" height="512" viewBox="0 0 128 128" width="512" xmlns="http://www.w3.org/2000/svg" data-name="Layer 1"><path d="m103.808 123.25h-79.616a1.75 1.75 0 0 1 0-3.5h79.616a1.75 1.75 0 0 1 0 3.5z" fill="#e8e8e8"/><path d="m69.716 45.119 14.993 9.035v14.823l-17.743-2.024z" fill="#cdcdcd"/><path d="m58.284 45.119-14.993 9.035v14.823l17.743-2.024z" fill="#cdcdcd"/><path d="m68.145 76.812h-4.145-4.145l-1.004 6.926h5.149 5.149z" fill="#bc4f41"/><path d="m74.054 52.14c-.94 13.523-1.692 21.226-1.692 21.226h-16.724s-.752-7.7-1.692-21.226c-.846-19.185-.563-23.548 10.054-45.64 10.617 22.092 10.9 26.455 10.054 45.64z" fill="#e8e8e8"/><path d="m72.449 26.877c-2.579-1.954-5.776-3.841-8.449-3.841s-5.87 1.887-8.449 3.828c1.518-5.313 4.124-11.371 8.449-20.364 4.325 9 6.938 15.058 8.449 20.377z" fill="#d75a4a"/><path d="m74.231 72.488c-.568 3.8-.949 5.877-.949 5.877h-18.564s-.381-2.073-.949-5.877z" fill="#d75a4a"/><circle cx="64" cy="35.903" fill="#cdcdcd" r="4.03"/><path d="m84.331 109.2c-.291 0-.583.01-.864.038a9.6 9.6 0 0 0 -11.739-5.156 9.579 9.579 0 0 0 -15.45 0 9.6 9.6 0 0 0 -11.739 5.156c-.281-.028-.573-.038-.864-.038a9.607 9.607 0 0 0 -9.606 9.607 9.429 9.429 0 0 0 .385 2.695h59.1a9.429 9.429 0 0 0 .385-2.695 9.607 9.607 0 0 0 -9.608-9.607z" fill="#e8e8e8"/><path d="m73.185 109.513a9.582 9.582 0 0 0 -5.572 1.552 8.177 8.177 0 0 0 -5.1-1.668h-.118a1.75 1.75 0 0 0 .02 3.5h.095a4.3 4.3 0 0 1 4.329 2.815 1.751 1.751 0 0 0 1.7 1.332 1.787 1.787 0 0 0 .42-.051 1.749 1.749 0 0 0 1.28-2.118 5.788 5.788 0 0 0 -.395-1.078 6.183 6.183 0 0 1 2.978-.8 1.75 1.75 0 1 0 .368-3.48z" fill="#cdcdcd"/><path d="m50.51 111.537a7.006 7.006 0 0 0 -5.129 2.721 1.75 1.75 0 0 0 2.822 2.071 3.576 3.576 0 0 1 2.629-1.308 5.418 5.418 0 0 1 4.1 1.339 1.75 1.75 0 0 0 2.394-2.553 8.874 8.874 0 0 0 -6.816-2.27z" fill="#cdcdcd"/><g fill="#e8e8e8"><path d="m58.851 95.7a1.749 1.749 0 0 1 -1.75-1.75v-4a1.75 1.75 0 0 1 3.5 0v4a1.75 1.75 0 0 1 -1.75 1.75z"/><path d="m69.149 95.7a1.75 1.75 0 0 1 -1.75-1.75v-4a1.75 1.75 0 0 1 3.5 0v4a1.749 1.749 0 0 1 -1.75 1.75z"/></g></svg>