<svg id="Layer_1" height="512" viewBox="0 0 128 128" width="512" xmlns="http://www.w3.org/2000/svg" data-name="Layer 1"><path d="m50.875 102.667h26.25v18.833h-26.25z" fill="#e8e8e8"/><path d="m103.81 84.75v22.37h-35.2l7.41-71.63s27.79 31.01 27.79 49.26z" fill="#3b70a8"/><path d="m97.81 89.125a1.749 1.749 0 0 1 -1.75-1.75v-2.625c0-4.114-2.092-9.887-6.218-17.156a1.75 1.75 0 0 1 3.043-1.729c4.429 7.8 6.675 14.157 6.675 18.885v2.625a1.75 1.75 0 0 1 -1.75 1.75z" fill="#4482c3"/><path d="m24.19 84.75v22.37h35.2l-7.41-71.63s-27.79 31.01-27.79 49.26z" fill="#3b70a8"/><path d="m80.024 75.179c-1.5 20.35-2.7 31.941-2.7 31.941h-26.652s-1.2-11.591-2.7-31.941c-1.344-28.869-.895-35.435 16.028-68.679 16.923 33.244 17.372 39.81 16.024 68.679z" fill="#e8e8e8"/><path d="m59.333 40.564a1.749 1.749 0 0 1 -.522-3.419 15.892 15.892 0 0 1 10.378 0 1.749 1.749 0 1 1 -1.044 3.339 12.451 12.451 0 0 0 -8.289 0 1.731 1.731 0 0 1 -.523.08z" fill="#3b70a8"/><path d="m46.25 99h35.5v14.333h-35.5z" fill="#cdcdcd"/></svg>