<svg id="Layer_1" height="512" viewBox="0 0 128 128" width="512" xmlns="http://www.w3.org/2000/svg" data-name="Layer 1"><path d="m83.726 57.398 6.84 27.585-17.017 17.017-18.046-22.692z" fill="#d75a4a"/><path d="m70.602 44.274-27.585-6.84-17.017 17.017 22.692 18.046z" fill="#d75a4a"/><path d="m45.538 91.98-4.759-4.759-4.759-4.759-9.104 6.799 5.912 5.911 5.911 5.912z" fill="#4482c3"/><path d="m80.646 70.438c-16.6 14.446-26.31 22.427-26.31 22.427l-19.2-19.2s7.981-9.706 22.427-26.31c21.053-22.996 26.386-27.682 63.937-40.855-13.173 37.551-17.859 42.884-40.854 63.938z" fill="#4482c3"/><path d="m61.708 80.577a1.75 1.75 0 0 1 -1.135-3.083c4.754-4.046 9.776-8.37 14.927-12.853a1.75 1.75 0 1 1 2.3 2.641c-5.161 4.49-10.194 8.823-14.957 12.877a1.744 1.744 0 0 1 -1.135.418z" fill="#3b70a8"/><path d="m107.806 39.594c-.717-5.2-2.221-11.042-5.29-14.11s-8.905-4.573-14.095-5.305c7.842-4.357 17.789-8.32 33.079-13.679-5.367 15.3-9.322 25.252-13.694 33.094z" fill="#d75a4a"/><path d="m57.489 94c-5.02 3.714-7.837 5.657-7.837 5.657l-21.312-21.309s1.943-2.817 5.66-7.837z" fill="#d75a4a"/><circle cx="87.744" cy="40.256" fill="#e8e8e8" r="6.543"/><path d="m16.957 101.4a66.222 66.222 0 0 0 -10.457 20.1 66.222 66.222 0 0 0 20.1-10.457 6.876 6.876 0 0 0 .7-10.345 6.876 6.876 0 0 0 -10.343.702z" fill="#f3d55b"/></svg>