<svg id="Layer_1" height="512" viewBox="0 0 128 128" width="512" xmlns="http://www.w3.org/2000/svg" data-name="Layer 1"><path d="m84.422 29.684 14.635 14.635-6.345 4.221-12.511-12.51z" fill="#cdcdcd"/><path d="m77.924 56.74h5.125v16.077h-5.125z" fill="#cdcdcd" transform="matrix(-.707 .707 -.707 -.707 183.206 53.672)"/><path d="m121.5 88.38-7.47 7.47-2.48 2.47-7.47 7.47-8.46-8.46-4.76-4.76-2.47-2.47-4.76-4.76-2.47-2.47-6-6 7.48-7.47 9.94-9.94 5.99 5.99 7.23 7.23 2.48 2.48 4.75 4.75 2.48 2.48z" fill="#4482c3"/><g fill="#3b70a8"><path d="m114.03 95.85-2.48 2.47-5.99-5.99-2.47-2.48-4.76-4.75-2.47-2.47-4.76-4.76-2.47-2.48-5.99-5.99 2.47-2.47 5.99 5.99 2.48 2.48 4.75 4.75 2.48 2.48 7.23 7.23z"/><path d="m101.05 67.93-7.47 7.47-2.48 2.47-7.47 7.47-2.47-2.47 7.47-7.48 2.47-2.47 7.47-7.47z"/><path d="m108.28 75.16-7.47 7.47-2.48 2.47-7.47 7.47-2.47-2.47 7.47-7.47 2.47-2.48 7.47-7.47z"/><path d="m115.51 82.39-7.47 7.47-2.48 2.47-7.47 7.47-2.47-2.47v-.01l17.41-17.41z"/></g><path d="m60.648 39.464h5.125v16.077h-5.125z" fill="#cdcdcd" transform="matrix(-.707 .707 -.707 -.707 141.498 36.396)"/><path d="m39.61 6.49-7.47 7.47-2.47 2.48-7.47 7.47 8.46 8.46 4.76 4.76 2.47 2.47 4.76 4.76 2.47 2.47 6 6 7.47-7.48 9.94-9.94-5.99-5.99-7.23-7.23-2.48-2.48-4.75-4.75-2.48-2.48z" fill="#4482c3"/><path d="m32.14 13.96-2.47 2.48 5.99 5.99 2.48 2.47 4.75 4.76 2.47 2.47 4.76 4.76 2.48 2.47 5.99 5.99 2.47-2.47-5.99-5.99-2.48-2.48-4.75-4.75-2.48-2.48-7.23-7.23z" fill="#3b70a8"/><path d="m60.06 26.94-7.47 7.47-2.47 2.48-7.47 7.47 2.47 2.47 7.48-7.47 2.47-2.47 7.47-7.47z" fill="#3b70a8"/><path d="m52.83 19.71-7.47 7.47-2.47 2.48-7.47 7.47 2.47 2.47 7.47-7.47 2.48-2.47 7.47-7.47z" fill="#3b70a8"/><path d="m45.6 12.48-7.47 7.47-2.47 2.48-7.47 7.47 2.47 2.47h.01l17.41-17.41z" fill="#3b70a8"/><path d="m52.825 65.457h6v13.417h-6z" fill="#cdcdcd" transform="matrix(-.707 -.707 .707 -.707 44.27 162.668)"/><path d="m30.31 99.43a1.75 1.75 0 0 1 -1.238-2.987l13.436-13.435a1.749 1.749 0 0 1 2.474 2.474l-13.435 13.435a1.743 1.743 0 0 1 -1.237.513z" fill="#cdcdcd"/><path d="m28.49 123.25a23.719 23.719 0 0 1 -23.74-23.75 1.751 1.751 0 0 1 1.75-1.75 1.749 1.749 0 0 1 1.75 1.75 20.219 20.219 0 0 0 20.24 20.25 1.75 1.75 0 1 1 0 3.5z" fill="#e8e8e8"/><path d="m28.49 117.25a17.73 17.73 0 0 1 -17.75-17.75 1.75 1.75 0 0 1 3.5 0 14.227 14.227 0 0 0 14.25 14.25 1.75 1.75 0 1 1 0 3.5z" fill="#e8e8e8"/><circle cx="28.486" cy="99.504" fill="#e8e8e8" r="6"/><path d="m52.026 75.964a16.045 16.045 0 0 0 -22.691 0l-3.447 3.447 22.691 22.689 3.447-3.447a16.045 16.045 0 0 0 0-22.689z" fill="#4482c3"/><path d="m50.329 91.874a1.724 1.724 0 0 1 -.488-.07 1.751 1.751 0 0 1 -1.194-2.168 8.343 8.343 0 0 0 .329-2.326 8.244 8.244 0 0 0 -2.429-5.866 1.75 1.75 0 0 1 2.474-2.475 11.718 11.718 0 0 1 3.455 8.341 11.881 11.881 0 0 1 -.467 3.3 1.751 1.751 0 0 1 -1.68 1.264z" fill="#3b70a8"/><path d="m63.534 36.457h17.692v39.808h-17.692z" fill="#e8e8e8" transform="matrix(.707 .707 -.707 .707 61.053 -34.673)"/></svg>