<svg id="Layer_1" height="512" viewBox="0 0 128 128" width="512" xmlns="http://www.w3.org/2000/svg" data-name="Layer 1"><path d="m98.618 29.336a48.99 48.99 0 1 1 -69.236 0 49.232 49.232 0 0 1 69.236 0z" fill="#f3d55b"/><g fill="#f3ba33"><path d="m16.99 59.28c-.62.51-1.23 1.01-1.84 1.5a48.987 48.987 0 0 1 44.22-45.58 270.812 270.812 0 0 1 -42.38 44.08z"/><path d="m92.23 23.94a268.731 268.731 0 0 1 -52.41 58.18c-5.07 4.18-10.05 7.89-15.03 11.23a48.567 48.567 0 0 1 -7.37-14.22q5.46-3.87 10.98-8.43a269.411 269.411 0 0 0 49.4-53.74 48.26 48.26 0 0 1 14.43 6.98z"/><path d="m112.95 63.28a48.982 48.982 0 0 1 -47.35 49.71 270.575 270.575 0 0 1 45.41-48.13c.65-.54 1.3-1.06 1.94-1.58z"/></g><path d="m121.441 11.558a5.885 5.885 0 0 0 -1.314-3.758c-3.77-4.228-18.318 2.543-32.888 13.034 4.779-1.937 11.053-5.2 13.372-2.428a5.129 5.129 0 0 1 1.122 2.915 17.957 17.957 0 0 1 -1.324 7.3c-3.762 10.47-14.915 26.62-30.085 42.538l-.149.148-.148.148c-15.955 14.988-31.763 25.609-41.7 28.745a14.213 14.213 0 0 1 -6.812.781 4.423 4.423 0 0 1 -2.574-1.473c-2.336-2.756-.32-7.375 1.882-12.371-10.923 14.821-16.892 28.077-13.35 32.531a5.018 5.018 0 0 0 3.326 1.756c2.284.348 5.352-.186 9.039-1.511 13.309-4.72 34.8-19.64 56.73-40.232.123-.122.244-.225.367-.347s.228-.244.35-.366c20.845-21.884 36.446-43.795 41.963-57.768 1.544-3.87 2.308-7.14 2.193-9.642z" fill="#e8e8e8"/></svg>