<svg id="Layer_1" height="512" viewBox="0 0 128 128" width="512" xmlns="http://www.w3.org/2000/svg" data-name="Layer 1"><g fill="#e8e8e8"><path d="m103.81 119.75h-12.739l-25.414-74.65c-.012-.034-.03-.063-.043-.095-.024-.058-.049-.115-.078-.171s-.056-.094-.087-.14a1.723 1.723 0 0 0 -.1-.14c-.035-.043-.074-.083-.113-.123s-.082-.079-.126-.116a1.64 1.64 0 0 0 -.137-.1c-.046-.031-.093-.062-.143-.089s-.11-.052-.166-.076c-.034-.013-.063-.032-.1-.044-.017-.006-.035-.006-.052-.006a1.652 1.652 0 0 0 -.182-.042 1.449 1.449 0 0 0 -.158-.027 2.961 2.961 0 0 0 -.344 0c-.053 0-.105.017-.158.027a1.806 1.806 0 0 0 -.18.041c-.018.006-.036.007-.054.013-.036.012-.066.032-.1.046-.054.022-.108.045-.161.073s-.1.059-.147.091a1.583 1.583 0 0 0 -.134.1 1.408 1.408 0 0 0 -.127.117 1.445 1.445 0 0 0 -.113.122 1.723 1.723 0 0 0 -.1.14c-.031.046-.06.092-.087.141s-.054.112-.078.17c-.013.032-.031.061-.043.095l-25.417 74.643h-12.739a1.75 1.75 0 1 0 0 3.5h79.62a1.75 1.75 0 0 0 0-3.5zm-46.622-48.65 14.691 8.064-21.965 13.306zm6.812-20 8.271 24.29-13.937-7.65zm10.425 30.618 9.065 26.624-32.79-12.259zm-26.641 17.01 37.163 13.9 2.426 7.126h-46.746z"/><path d="m66.563 45.505a1.75 1.75 0 0 1 -1.237-2.987l13.435-13.435a1.749 1.749 0 0 1 2.474 2.474l-13.435 13.435a1.743 1.743 0 0 1 -1.237.513z"/><path d="m103.808 30.25a1.75 1.75 0 0 1 -1.746-1.753 20.221 20.221 0 0 0 -20.244-20.247 1.75 1.75 0 0 1 0-3.5 23.722 23.722 0 0 1 23.74 23.75 1.751 1.751 0 0 1 -1.75 1.75z"/><path d="m97.818 30.25a1.751 1.751 0 0 1 -1.75-1.75 14.229 14.229 0 0 0 -14.25-14.25 1.75 1.75 0 0 1 0-3.5 17.73 17.73 0 0 1 17.75 17.75 1.751 1.751 0 0 1 -1.75 1.75z"/></g><circle cx="81.822" cy="28.496" fill="#4482c3" r="6"/><path d="m61.729 25.9-3.448 3.447a16.045 16.045 0 0 0 22.691 22.689l3.448-3.447z" fill="#4482c3"/><path d="m62.523 49.543a1.742 1.742 0 0 1 -1.237-.512 11.826 11.826 0 0 1 -2.986-11.643 1.75 1.75 0 0 1 3.361.977 8.325 8.325 0 0 0 2.1 8.191 1.75 1.75 0 0 1 -1.238 2.987z" fill="#3b70a8"/></svg>