<svg id="Layer_1" height="512" viewBox="0 0 128 128" width="512" xmlns="http://www.w3.org/2000/svg" data-name="Layer 1"><path d="m76 62.25h-4.2a7.932 7.932 0 0 0 -1.045-2.53l2.969-2.968a1.75 1.75 0 1 0 -2.475-2.475l-2.969 2.969a7.932 7.932 0 0 0 -2.53-1.046v-4.2a1.75 1.75 0 0 0 -3.5 0v4.2a7.932 7.932 0 0 0 -2.53 1.045l-2.968-2.969a1.75 1.75 0 1 0 -2.475 2.475l2.969 2.968a7.932 7.932 0 0 0 -1.046 2.531h-4.2a1.75 1.75 0 0 0 0 3.5h4.2a7.932 7.932 0 0 0 1.045 2.53l-2.969 2.968a1.75 1.75 0 0 0 2.475 2.475l2.968-2.969a7.932 7.932 0 0 0 2.531 1.046v4.2a1.75 1.75 0 0 0 3.5 0v-4.2a7.932 7.932 0 0 0 2.53-1.045l2.968 2.969a1.75 1.75 0 0 0 2.475-2.475l-2.969-2.969a7.932 7.932 0 0 0 1.046-2.53h4.2a1.75 1.75 0 0 0 0-3.5z" fill="#f3d55b"/><g fill="#e8e8e8"><path d="m26.54 123.261c-6.687 0-12.151-1.94-16.006-5.8-6.927-6.927-7.669-19.046-2.09-34.125 5.414-14.633 16.176-30.471 30.3-44.6s29.963-24.887 44.6-30.3c15.078-5.578 27.2-4.837 34.125 2.09s7.669 19.046 2.09 34.125c-5.414 14.633-16.176 30.471-30.3 44.6-14.125 14.125-29.963 24.887-44.6 30.3a53.124 53.124 0 0 1 -18.119 3.71zm74.924-115.037a49.77 49.77 0 0 0 -16.909 3.5c-14.169 5.246-29.555 15.72-43.335 29.496s-24.25 29.166-29.493 43.335c-5.078 13.723-4.622 24.532 1.282 30.436s16.713 6.359 30.436 1.282c14.169-5.243 29.555-15.717 43.335-29.493 13.776-13.78 24.25-29.166 29.493-43.335 5.078-13.723 4.622-24.532-1.282-30.436-3.185-3.185-7.799-4.785-13.527-4.785z"/><path d="m105.65 49.216a1.752 1.752 0 0 1 -1.656-2.318c3.329-9.717 2.856-17.374-1.331-21.561a12.881 12.881 0 0 0 -8.437-3.457 1.75 1.75 0 1 1 .26-3.49 16.26 16.26 0 0 1 10.652 4.472c5.183 5.182 5.952 14.121 2.168 25.17a1.752 1.752 0 0 1 -1.656 1.184z"/><path d="m33.646 109.615c-.044 0-.088 0-.132 0a16.26 16.26 0 0 1 -10.652-4.472c-5.183-5.182-5.952-14.121-2.168-25.17a1.75 1.75 0 1 1 3.312 1.127c-3.329 9.717-2.856 17.374 1.331 21.561a12.881 12.881 0 0 0 8.437 3.457 1.75 1.75 0 0 1 -.128 3.495z"/><path d="m44.223 96.109c-3.754 0-6.839-1.1-9.033-3.3-3.9-3.9-4.358-10.605-1.294-18.886 2.9-7.835 8.647-16.3 16.187-23.841s16.006-13.288 23.841-16.182c8.281-3.064 14.989-2.6 18.886 1.294s4.358 10.606 1.29 18.882c-2.9 7.835-8.647 16.3-16.187 23.841s-16.002 13.289-23.837 16.183a28.837 28.837 0 0 1 -9.853 2.009zm39.523-60.709a25.376 25.376 0 0 0 -8.608 1.774c-7.371 2.728-15.39 8.19-22.58 15.38s-12.652 15.209-15.38 22.58c-2.525 6.824-2.347 12.363.487 15.2s8.372 3.011 15.2.487c7.371-2.728 15.39-8.19 22.58-15.38s12.652-15.209 15.38-22.58c2.525-6.824 2.347-12.363-.487-15.2a9.039 9.039 0 0 0 -6.592-2.261z"/></g><circle cx="103.808" cy="72" fill="#cdcdcd" r="6"/><circle cx="72.917" cy="35.983" fill="#cdcdcd" r="6"/><circle cx="43.812" cy="93.355" fill="#cdcdcd" r="6"/><circle cx="25.792" cy="56.668" fill="#cdcdcd" r="6"/></svg>