<svg id="Layer_1" height="512" viewBox="0 0 128 128" width="512" xmlns="http://www.w3.org/2000/svg" data-name="Layer 1"><path d="m121.5 84.68h-115l24.02-47.18 2.55-5 4.75-9.34c5.23-10.27 15.27-16.66 26.18-16.66a28.3 28.3 0 0 1 15.22 4.48 30.04 30.04 0 0 1 5.49 4.49c.24.25.48.5.71.75a32.171 32.171 0 0 1 4.76 6.94l4.75 9.34 2.55 5 4.01 7.88 13.45 26.41z" fill="#4482c3"/><g fill="#e8e8e8"><path d="m113.327 119.75h-1.427l-2.6-23.07-1.36-12h-3.51a1.34 1.34 0 0 0 .01.2l1.33 11.8 2.6 23.07h-1.043a1.75 1.75 0 0 0 0 3.5h6a1.75 1.75 0 0 0 0-3.5z"/><path d="m67 119.75h-1.25v-30.917a1.75 1.75 0 0 0 -3.5 0v30.917h-1.25a1.75 1.75 0 0 0 0 3.5h6a1.75 1.75 0 0 0 0-3.5z"/><path d="m18.7 96.68-2.6 23.07h-1.427a1.75 1.75 0 0 0 0 3.5h6a1.75 1.75 0 1 0 0-3.5h-1.043l2.6-23.07 1.33-11.8a1.34 1.34 0 0 0 .01-.2h-3.51z"/></g><path d="m29 89.605a16.833 16.833 0 0 0 16.833 16.833h36.334a16.833 16.833 0 0 0 16.833-16.833z" fill="#4482c3"/><path d="m94.93 32.5h-61.86l4.75-9.34c5.23-10.27 15.27-16.66 26.18-16.66a28.3 28.3 0 0 1 15.22 4.48 31.067 31.067 0 0 1 10.96 12.18z" fill="#e8e8e8"/><path d="m83.71 25.642a1.75 1.75 0 0 1 -1.487-.824 23.217 23.217 0 0 0 -7.162-7.3 20.935 20.935 0 0 0 -6.68-2.785 1.75 1.75 0 0 1 .764-3.416 24.435 24.435 0 0 1 7.793 3.247 26.742 26.742 0 0 1 8.255 8.4 1.75 1.75 0 0 1 -1.483 2.676z" fill="#cdcdcd"/><path d="m6.5 84.68h115v12h-115z" fill="#3b70a8"/><path d="m114.94 71.79h-21.61v-26.41h8.16z" fill="#e8e8e8"/><path d="m13.06 71.79h21.61v-26.41h-8.16z" fill="#e8e8e8"/><circle cx="64" cy="58.589" fill="#e8e8e8" r="13.205"/></svg>