<svg id="Layer_1" height="512" viewBox="0 0 128 128" width="512" xmlns="http://www.w3.org/2000/svg" data-name="Layer 1"><path d="m64 6.5a48.654 48.654 0 0 0 -48.654 48.654v23.8h97.308v-23.8a48.654 48.654 0 0 0 -48.654-48.654z" fill="#e8e8e8"/><path d="m86.12 47.63h17.69v42.12h-17.69z" fill="#3b70a8"/><path d="m24.19 47.63h17.69v42.12h-17.69z" fill="#3b70a8"/><path d="m77.27 50.73v36.22h-26.54v-49.37h13.27z" fill="#3b70a8"/><g fill="#cdcdcd"><path d="m58.48 64a1.746 1.746 0 0 1 -1.75 1.75h-6v-3.5h6a1.752 1.752 0 0 1 1.75 1.75z"/><path d="m58.48 72.69a1.746 1.746 0 0 1 -1.75 1.75h-6v-3.5h6a1.746 1.746 0 0 1 1.75 1.75z"/><path d="m58.48 55.32a1.752 1.752 0 0 1 -1.75 1.75h-6v-3.5h6a1.746 1.746 0 0 1 1.75 1.75z"/><path d="m58.48 46.63a1.746 1.746 0 0 1 -1.75 1.75h-6v-3.5h6a1.746 1.746 0 0 1 1.75 1.75z"/><path d="m93.87 64a1.752 1.752 0 0 1 -1.75 1.75h-6v-3.5h6a1.758 1.758 0 0 1 1.75 1.75z"/><path d="m93.87 72.69a1.752 1.752 0 0 1 -1.75 1.75h-6v-3.5h6a1.752 1.752 0 0 1 1.75 1.75z"/><path d="m93.87 55.32a1.758 1.758 0 0 1 -1.75 1.75h-6v-3.5h6a1.752 1.752 0 0 1 1.75 1.75z"/><path d="m31.94 64a1.746 1.746 0 0 1 -1.75 1.75h-6v-3.5h6a1.752 1.752 0 0 1 1.75 1.75z"/><path d="m31.94 72.69a1.746 1.746 0 0 1 -1.75 1.75h-6v-3.5h6a1.746 1.746 0 0 1 1.75 1.75z"/><path d="m31.94 55.32a1.752 1.752 0 0 1 -1.75 1.75h-6v-3.5h6a1.746 1.746 0 0 1 1.75 1.75z"/><path d="m30.5 88.125h67v33.375h-67z"/></g><path d="m87.583 117.25h-19.334a1.75 1.75 0 0 1 0-3.5h19.334a1.75 1.75 0 0 1 0 3.5z" fill="#e8e8e8"/><circle cx="83.09" cy="28.222" fill="#3b70a8" r="4.03"/><path d="m58.293 19.573h-1.25v-1.25a1.75 1.75 0 0 0 -3.5 0v1.25h-1.25a1.75 1.75 0 0 0 0 3.5h1.25v1.25a1.75 1.75 0 0 0 3.5 0v-1.25h1.25a1.75 1.75 0 0 0 0-3.5z" fill="#3b70a8"/><path d="m41.5 28.676h-1.25v-1.25a1.75 1.75 0 0 0 -3.5 0v1.25h-1.25a1.75 1.75 0 1 0 0 3.5h1.25v1.25a1.75 1.75 0 0 0 3.5 0v-1.25h1.25a1.75 1.75 0 0 0 0-3.5z" fill="#3b70a8"/><path d="m6.5 78.951h115v12.857h-115z" fill="#cdcdcd"/><path d="m6.5 91.808 5.667 12h103.666l5.667-12z" fill="#e8e8e8"/></svg>