<svg id="Layer_1" height="512" viewBox="0 0 128 128" width="512" xmlns="http://www.w3.org/2000/svg" data-name="Layer 1"><path d="m106.488 73.559a1.743 1.743 0 0 1 -1.237-.513l-50.3-50.3a1.75 1.75 0 0 1 2.475-2.475l50.3 50.3a1.751 1.751 0 0 1 -1.238 2.988z" fill="#e8e8e8"/><path d="m71.2 28.19-8.33 8.33-5.99-5.99-2.47-2.47h-.01l-4.75-4.76-2.47-2.47h-.01l-5.99-6 8.33-8.33z" fill="#4482c3"/><path d="m53.92 23.383h11.78v3.493h-11.78z" fill="#3b70a8" transform="matrix(.707 -.707 .707 .707 -.252 49.652)"/><path d="m46.69 16.153h11.78v3.493h-11.78z" fill="#3b70a8" transform="matrix(.707 -.707 .707 .707 2.743 42.423)"/><path d="m121.5 78.49-8.33 8.33-5.99-5.99h-.01l-2.47-2.48-4.75-4.75h-.01l-2.47-2.48-5.99-5.99 8.33-8.33 5.99 5.99 2.48 2.48 4.75 4.75 2.48 2.48z" fill="#4482c3"/><path d="m108.28 65.27-8.33 8.33h-.01l-2.47-2.48 8.33-8.33z" fill="#3b70a8"/><path d="m115.51 72.5-8.33 8.33h-.01l-2.47-2.48 8.33-8.33z" fill="#3b70a8"/><path d="m71.809 108.238a1.747 1.747 0 0 1 -1.238-.512l-50.3-50.3a1.75 1.75 0 0 1 2.475-2.475l50.3 50.3a1.75 1.75 0 0 1 -1.237 2.987z" fill="#e8e8e8"/><path d="m36.52 62.87-8.33 8.33-5.99-5.99-2.47-2.47h-.01l-4.75-4.76-2.47-2.47h-.01l-5.99-6 8.33-8.33z" fill="#4482c3"/><path d="m19.24 58.063h11.78v3.493h-11.78z" fill="#3b70a8" transform="matrix(.707 -.707 .707 .707 -34.932 35.287)"/><path d="m12.01 50.833h11.78v3.493h-11.78z" fill="#3b70a8" transform="matrix(.707 -.707 .707 .707 -31.937 28.058)"/><path d="m86.82 113.17-8.33 8.33-5.99-5.99h-.01l-2.47-2.48-4.75-4.75h-.01l-2.47-2.48-5.99-5.99 8.33-8.33 5.99 5.99 2.48 2.48 4.75 4.75 2.48 2.48z" fill="#4482c3"/><g fill="#3b70a8"><path d="m73.6 99.95-8.33 8.33h-.01l-2.47-2.48 8.33-8.33z"/><path d="m80.83 107.18-8.33 8.33h-.01l-2.47-2.48 8.33-8.33z"/><path d="m61 50.125h6v27.75h-6z" transform="matrix(-.707 -.707 .707 -.707 64 154.51)"/></g><path d="m63.72 76.79-23.465 23.465-12.51-12.51 23.465-23.465 5.02 5.02 2.48 2.48z" fill="#4482c3"/><path d="m58.71 71.78-10.81 10.8a1.754 1.754 0 1 1 -2.48-2.48l10.81-10.8z" fill="#e8e8e8"/><path d="m100.255 40.255-23.465 23.465-5.01-5.01h-.01l-2.47-2.48h-.01l-5.01-5.02 23.465-23.465z" fill="#4482c3"/><path d="m82.58 47.9-10.8 10.81h-.01l-2.47-2.48 10.8-10.81a1.754 1.754 0 1 1 2.48 2.48z" fill="#e8e8e8"/><path d="m90.114 23.251 14.634 14.635-6.345 4.221-12.51-12.51z" fill="#3b70a8"/><path d="m37.886 104.749-14.634-14.635 6.345-4.221 12.51 12.51z" fill="#3b70a8"/></svg>