<svg id="Layer_1" height="512" viewBox="0 0 128 128" width="512" xmlns="http://www.w3.org/2000/svg" data-name="Layer 1"><path d="m61.387 96.176v17.991h-18.752v-55.167a54.666 54.666 0 0 0 -6.885 11c-2.438 5.062-3.977 5.537-7.145 4.434a6.292 6.292 0 0 1 -3.98-8.352c1.933-6 7.875-19.832 22.239-28.4l15.636-4.847h3l15.636 4.845c14.364 8.57 20.306 22.4 22.239 28.4a6.294 6.294 0 0 1 -3.98 8.353c-3.168 1.1-4.708.628-7.145-4.435a54.666 54.666 0 0 0 -6.885-11v55.17h-18.752v-17.992a2.614 2.614 0 0 0 -2.613-2.614 2.614 2.614 0 0 0 -2.613 2.614z" fill="#e8e8e8"/><path d="m79.365 103.75a1.75 1.75 0 0 1 -1.75-1.75v-16.312a1.75 1.75 0 0 1 3.5 0v16.312a1.75 1.75 0 0 1 -1.75 1.75z" fill="#cdcdcd"/><path d="m81.669 24.169v11.231a4.361 4.361 0 0 1 -2.551 3.968 43.613 43.613 0 0 1 -6.906 2.475 32.658 32.658 0 0 1 -8.212 1.157 32.658 32.658 0 0 1 -8.212-1.159 43.613 43.613 0 0 1 -6.906-2.475 4.361 4.361 0 0 1 -2.551-3.966v-10.92a17.959 17.959 0 0 1 17.805-17.98 17.671 17.671 0 0 1 17.533 17.669z" fill="#4482c3"/><path d="m75.67 24.17v10.16a38.213 38.213 0 0 1 -4.99 1.71 26.755 26.755 0 0 1 -6.68.96 26.755 26.755 0 0 1 -6.68-.96 38.213 38.213 0 0 1 -4.99-1.71v-9.85c.05-4.67 5.38-8.6 11.68-8.6a14.127 14.127 0 0 1 8.24 2.47 7.5 7.5 0 0 1 3.42 5.82z" fill="#e8e8e8"/><g fill="#4482c3"><path d="m40.917 118.833a2.667 2.667 0 0 0 2.666 2.667h17.8v-11.667h-11.466a9 9 0 0 0 -9 9z"/><path d="m78.083 109.833h-11.47v11.667h17.8a2.667 2.667 0 0 0 2.666-2.667 9 9 0 0 0 -8.996-9z"/><path d="m52.208 60.998h23.583v17.083h-23.583z"/></g></svg>