<svg id="Layer_1" height="512" viewBox="0 0 128 128" width="512" xmlns="http://www.w3.org/2000/svg" data-name="Layer 1"><path d="m119.75 64a55.75 55.75 0 1 1 -55.75-55.75 55.995 55.995 0 0 1 55.75 55.75z" fill="#7d6599"/><path d="m64 110.75a46.731 46.731 0 1 1 41.118-24.481 46.8 46.8 0 0 1 -41.118 24.481z" fill="#67537e"/><path d="m64 98.75a34.736 34.736 0 1 1 30.568-18.2 34.79 34.79 0 0 1 -30.568 18.2z" fill="#e8e8e8"/><g fill="#7d6599"><path d="m43.818 46.256a2.582 2.582 0 1 0 3.651 0 2.582 2.582 0 0 0 -3.651 0z"/><path d="m53 46.256a2.582 2.582 0 1 0 3.651 0 2.582 2.582 0 0 0 -3.651 0z"/><path d="m62.175 46.256a2.581 2.581 0 1 0 3.65 0 2.582 2.582 0 0 0 -3.65 0z"/><path d="m71.353 46.256a2.582 2.582 0 1 0 3.651 0 2.582 2.582 0 0 0 -3.651 0z"/><path d="m84.182 49.907a2.582 2.582 0 1 0 -3.651 0 2.582 2.582 0 0 0 3.651 0z"/><path d="m43.818 54.215a2.582 2.582 0 1 0 3.651 0 2.582 2.582 0 0 0 -3.651 0z"/><path d="m53 54.215a2.582 2.582 0 1 0 3.651 0 2.582 2.582 0 0 0 -3.651 0z"/><path d="m62.175 54.215a2.581 2.581 0 1 0 3.65 0 2.582 2.582 0 0 0 -3.65 0z"/><path d="m71.353 54.215a2.582 2.582 0 1 0 3.651 0 2.582 2.582 0 0 0 -3.651 0z"/><path d="m53 38.3a2.581 2.581 0 1 0 3.651 0 2.581 2.581 0 0 0 -3.651 0z"/><path d="m62.175 38.3a2.581 2.581 0 1 0 3.65 0 2.581 2.581 0 0 0 -3.65 0z"/><path d="m71.353 38.3a2.581 2.581 0 1 0 3.647 0 2.581 2.581 0 0 0 -3.647 0z"/><path d="m53 89.7a2.581 2.581 0 1 1 3.651 0 2.581 2.581 0 0 1 -3.651 0z"/><path d="m62.175 89.7a2.581 2.581 0 1 1 3.65 0 2.581 2.581 0 0 1 -3.65 0z"/><path d="m71.353 89.7a2.581 2.581 0 1 1 3.647 0 2.581 2.581 0 0 1 -3.647 0z"/><path d="m80.531 54.215a2.582 2.582 0 1 0 3.651 0 2.582 2.582 0 0 0 -3.651 0z"/><path d="m43.818 62.175a2.581 2.581 0 1 0 3.651 0 2.581 2.581 0 0 0 -3.651 0z"/><path d="m53 62.175a2.581 2.581 0 1 0 3.651 0 2.581 2.581 0 0 0 -3.651 0z"/><path d="m62.175 62.175a2.581 2.581 0 1 0 3.65 0 2.581 2.581 0 0 0 -3.65 0z"/><path d="m71.353 62.175a2.581 2.581 0 1 0 3.651 0 2.581 2.581 0 0 0 -3.651 0z"/><path d="m80.531 62.175a2.581 2.581 0 1 0 3.651 0 2.581 2.581 0 0 0 -3.651 0z"/><path d="m43.818 70.134a2.582 2.582 0 1 0 3.651 0 2.582 2.582 0 0 0 -3.651 0z"/><path d="m53 70.134a2.582 2.582 0 1 0 3.651 0 2.582 2.582 0 0 0 -3.651 0z"/><path d="m62.175 70.134a2.581 2.581 0 1 0 3.65 0 2.582 2.582 0 0 0 -3.65 0z"/><path d="m71.353 70.134a2.582 2.582 0 1 0 3.651 0 2.582 2.582 0 0 0 -3.651 0z"/><path d="m80.531 70.134a2.582 2.582 0 1 0 3.651 0 2.582 2.582 0 0 0 -3.651 0z"/><path d="m43.818 78.093a2.582 2.582 0 1 0 3.651 0 2.582 2.582 0 0 0 -3.651 0z"/><path d="m53 78.093a2.582 2.582 0 1 0 3.651 0 2.582 2.582 0 0 0 -3.651 0z"/><path d="m62.175 78.093a2.581 2.581 0 1 0 3.65 0 2.582 2.582 0 0 0 -3.65 0z"/><path d="m71.353 78.093a2.582 2.582 0 1 0 3.651 0 2.582 2.582 0 0 0 -3.651 0z"/><path d="m80.531 78.093a2.582 2.582 0 1 0 3.651 0 2.582 2.582 0 0 0 -3.651 0z"/></g><path d="m64 22.375-7.756-15.875h7.756 7.756z" fill="#e8e8e8"/><path d="m93.433 34.567 5.741-16.71 5.485 5.484 5.484 5.485z" fill="#e8e8e8"/><path d="m105.625 64 15.875-7.756v7.756 7.756z" fill="#e8e8e8"/><path d="m93.433 93.433 16.71 5.741-5.484 5.485-5.485 5.484z" fill="#e8e8e8"/><path d="m64 105.625 7.756 15.875h-7.756-7.756z" fill="#e8e8e8"/><path d="m34.567 93.433-5.741 16.71-5.485-5.484-5.484-5.485z" fill="#e8e8e8"/><path d="m22.375 64-15.875 7.756v-7.756-7.756z" fill="#e8e8e8"/><path d="m34.567 34.567-16.71-5.741 5.484-5.485 5.485-5.484z" fill="#e8e8e8"/></svg>