<svg id="Layer_1" height="512" viewBox="0 0 128 128" width="512" xmlns="http://www.w3.org/2000/svg" data-name="Layer 1"><path d="m108.5 49.99c0 24.18-11.312 34.14-18.1 47.39-8.146 15.92-12.986 24.12-26.4 24.12s-18.254-8.2-26.4-24.12c-6.788-13.25-18.1-23.21-18.1-47.39 0-31.75 19.919-43.49 44.5-43.49s44.5 11.74 44.5 43.49z" fill="#7d6599"/><path d="m94.006 25.157a1.741 1.741 0 0 1 -1.3-.579 26.394 26.394 0 0 0 -2.056-2.041 1.75 1.75 0 1 1 2.325-2.616 29.575 29.575 0 0 1 2.33 2.314 1.75 1.75 0 0 1 -1.3 2.922z" fill="#67537e"/><path d="m85.644 18.778a1.733 1.733 0 0 1 -.8-.2 40.65 40.65 0 0 0 -14.51-4.021 1.75 1.75 0 0 1 .356-3.482 44.124 44.124 0 0 1 15.757 4.392 1.75 1.75 0 0 1 -.8 3.306z" fill="#67537e"/><g fill="#e8e8e8"><path d="m95.959 40.464c1.079 5.858-1.447 12.482-6.981 16.835s-12.56 5.241-18 2.81c-1.087-5.852 1.43-12.487 6.965-16.839s12.584-5.242 18.016-2.806z"/><path d="m32.041 40.464c-1.079 5.858 1.447 12.482 6.981 16.835s12.56 5.241 18 2.81c1.087-5.852-1.43-12.487-6.965-16.839s-12.584-5.242-18.016-2.806z"/><path d="m70.96 94.75c-.054 0-.109 0-.165-.008s-4.384-.409-6.8-.409-6.751.405-6.8.409a1.75 1.75 0 0 1 -.327-3.485c.184-.017 4.546-.424 7.122-.424s6.938.407 7.122.424a1.75 1.75 0 0 1 -.162 3.493z"/></g></svg>