<svg id="Layer_1" height="512" viewBox="0 0 128 128" width="512" xmlns="http://www.w3.org/2000/svg" data-name="Layer 1"><path d="m100.07 72.82c-2.44 8.03-6.28 15.39-9.15 19.06a19.937 19.937 0 0 0 -4.59 13.43l-41.54.48c0-18.29-15.61-22.21-18.42-40.43s-3.5-29.27 1.6-32.12c5.56-3.12 10.08 3.93 12.11 13.56 1.5 7.08 2.67 13.28 6.5 13.28 2.51 0 3.18-2.71 3.67-5.11 3.88-18.75-4.65-48.45 6.88-48.45 6.87 0 9.25 4.63 9.43 16.97.06-8.37 3.85-13.25 7.96-12.54 3.87.86 5.71 8.86 5.74 19.26 1.47-5.89 4.17-7.88 7.06-7.55 3.55.4 7.19 5.05 5.47 21.68 1.5-4.71 3.88-6.69 7.28-5.6 5.1 1.64 4.87 18.02 0 34.08z" fill="#cdcdcd"/><path d="m44.791 103.808h41.536v17.634h-41.536z" fill="#cdcdcd"/><path d="m96.04 83.18a48.831 48.831 0 0 1 -5.12 8.7 19.607 19.607 0 0 0 -4.55 11.93h-41.64c-1.08-16.62-15.65-20.91-18.36-38.45-2.81-18.23-3.5-29.27 1.6-32.12 5.56-3.12 10.08 3.93 12.11 13.56 1.5 7.08 2.67 13.28 6.5 13.28l24.59 3.92z" fill="#e8e8e8"/><path d="m62.743 97.856h5.634v29.536h-5.634z" fill="#e8e8e8" transform="matrix(0 1 -1 0 178.184 47.065)"/><path d="m48.393 95.01a1.752 1.752 0 0 1 -1.62-1.086c-1.917-4.672-4.753-8.353-7.5-11.912-1.49-1.934-2.889-3.748-4.143-5.679a1.749 1.749 0 1 1 2.934-1.906c1.183 1.812 2.536 3.573 3.975 5.436 2.76 3.58 5.877 7.624 7.973 12.733a1.75 1.75 0 0 1 -1.619 2.414z" fill="#cdcdcd"/></svg>