<svg id="Layer_1" height="512" viewBox="0 0 128 128" width="512" xmlns="http://www.w3.org/2000/svg" data-name="Layer 1"><path d="m117 51.75a1.749 1.749 0 0 1 -1.75-1.75v-27.5a1.75 1.75 0 0 1 3.5 0v27.5a1.749 1.749 0 0 1 -1.75 1.75z" fill="#cdcdcd"/><path d="m106.667 50h14.833v28h-14.833z" fill="#e8e8e8"/><path d="m6.5 50h14.833v28h-14.833z" fill="#e8e8e8" transform="matrix(-1 0 0 -1 27.833 128)"/><path d="m102.26 113.99c-4.02 1.5-8.09 2.79-12.17 3.87a102.693 102.693 0 0 1 -26.09 3.64 102.974 102.974 0 0 1 -26.08-3.63c-4.09-1.08-8.16-2.38-12.18-3.88l10.39-24.11h55.75z" fill="#3b70a8"/><path d="m112.65 55.15v30.919a12.006 12.006 0 0 1 -7.022 10.925 120.193 120.193 0 0 1 -19.018 6.816 89.988 89.988 0 0 1 -22.61 3.19 89.988 89.988 0 0 1 -22.61-3.19 120.193 120.193 0 0 1 -19.018-6.816 12.006 12.006 0 0 1 -7.022-10.925v-30.062c0-26.965 22.06-49.707 49.024-49.507a48.653 48.653 0 0 1 48.276 48.65z" fill="#cdcdcd"/><path d="m103.65 62.16v35.71a119.923 119.923 0 0 1 -17.04 5.94 89.988 89.988 0 0 1 -22.61 3.19 89.988 89.988 0 0 1 -22.61-3.19 119.923 119.923 0 0 1 -17.04-5.94v-34.99c0-18.37 18.17-33.88 39.67-33.88h.29a43.579 43.579 0 0 1 27.72 9.71c7.5 6.27 11.62 14.6 11.62 23.45z" fill="#e8e8e8"/><path d="m64.37 6.5a49.245 49.245 0 0 1 8.48.8v22.54a46.3 46.3 0 0 0 -8.54-.84h-.29a43.892 43.892 0 0 0 -8.87.9v-22.55a46.724 46.724 0 0 1 9.22-.85z" fill="#4482c3"/><path d="m31.685 57.007a1.726 1.726 0 0 1 -.588-.1 1.751 1.751 0 0 1 -1.061-2.236 30.993 30.993 0 0 1 12.764-15.349 1.75 1.75 0 0 1 1.881 2.951 27.494 27.494 0 0 0 -11.348 13.572 1.751 1.751 0 0 1 -1.648 1.162z" fill="#cdcdcd"/><path d="m50.652 39.129a1.75 1.75 0 0 1 -.607-3.392 40.186 40.186 0 0 1 4.855-1.451 1.75 1.75 0 0 1 .788 3.41 36.412 36.412 0 0 0 -4.427 1.325 1.75 1.75 0 0 1 -.609.108z" fill="#cdcdcd"/><circle cx="117" cy="22.5" fill="#e8e8e8" r="4.03"/><g fill="#cdcdcd"><path d="m71.17 94.92a1.75 1.75 0 0 1 0-3.5c5.732 0 22.926-2.483 31.458-8.63a1.75 1.75 0 0 1 2.045 2.84c-9.72 7.003-28.221 9.29-33.503 9.29z"/><path d="m75.03 89.137h-7.73a4.03 4.03 0 0 0 0 8.06h7.73a4.03 4.03 0 0 0 0-8.06z"/></g></svg>