<svg id="Layer_1" height="512" viewBox="0 0 128 128" width="512" xmlns="http://www.w3.org/2000/svg" data-name="Layer 1"><path d="m93.807 77.506-4.939-.57h-49.736l-4.939.57a18.347 18.347 0 0 0 -16.244 18.227v25.767h92.1v-25.767a18.347 18.347 0 0 0 -16.242-18.227z" fill="#e8e8e8"/><path d="m98.729 36.755a1.751 1.751 0 0 1 -1.75-1.75v-18.02a1.75 1.75 0 0 1 3.5 0v18.02a1.75 1.75 0 0 1 -1.75 1.75z" fill="#cdcdcd"/><path d="m91.958 35.005h9.72v18.348h-9.72z" fill="#e8e8e8"/><path d="m26.322 35.005h9.72v18.348h-9.72z" fill="#e8e8e8" transform="matrix(-1 0 0 -1 62.364 88.357)"/><path d="m95.879 38.38v20.26a7.869 7.869 0 0 1 -4.6 7.159 78.749 78.749 0 0 1 -12.462 4.466 58.95 58.95 0 0 1 -14.817 2.09 58.95 58.95 0 0 1 -14.816-2.09 78.749 78.749 0 0 1 -12.462-4.465 7.869 7.869 0 0 1 -4.6-7.159v-19.7c0-17.669 14.456-32.572 32.124-32.439a31.88 31.88 0 0 1 31.633 31.878z" fill="#cdcdcd"/><path d="m69.8 7.025v14.775a30.317 30.317 0 0 0 -5.6-.551h-.19a28.73 28.73 0 0 0 -5.812.59v-14.781a30.626 30.626 0 0 1 6.044-.558 32.219 32.219 0 0 1 5.558.525z" fill="#4482c3"/><path d="m93.275 121.5v-34.694a10.434 10.434 0 0 0 -6.438-9.87h-45.674a10.434 10.434 0 0 0 -6.438 9.87v34.694z" fill="#4482c3"/><path d="m89.071 76.936c-2.635.983-5.3 1.828-7.975 2.536a67.323 67.323 0 0 1 -17.096 2.385 67.478 67.478 0 0 1 -17.089-2.379q-4.022-1.062-7.982-2.542l6.809-15.8h36.531z" fill="#3b70a8"/><path d="m89.98 42.97v23.4a78.707 78.707 0 0 1 -11.16 3.9 59.045 59.045 0 0 1 -14.82 2.09 59.045 59.045 0 0 1 -14.82-2.09 78.707 78.707 0 0 1 -11.16-3.9v-22.93c0-12.03 11.9-22.2 25.99-22.2h.19a28.576 28.576 0 0 1 18.17 6.37 19.97 19.97 0 0 1 7.61 15.36z" fill="#e8e8e8"/><path d="m44.019 50.438a1.75 1.75 0 0 1 -1.75-1.75v-5.243c0-4.37 2.077-8.637 5.85-12.014a1.75 1.75 0 1 1 2.335 2.607 12.809 12.809 0 0 0 -4.685 9.407v5.243a1.751 1.751 0 0 1 -1.75 1.75z" fill="#cdcdcd"/><path d="m89.98 55.67v3.85c-6.72 4.19-17.8 5.52-21.28 5.52a1.75 1.75 0 1 1 0-3.5c3.7 0 14.78-1.59 20.26-5.54a1.769 1.769 0 0 1 1.02-.33z" fill="#cdcdcd"/><path d="m71.228 60.65h-5.063a2.641 2.641 0 1 0 0 5.281h5.063a2.641 2.641 0 0 0 0-5.281z" fill="#cdcdcd"/><path d="m49.362 104.754h29.275v16.746h-29.275z" fill="#e8e8e8"/><path d="m110.047 95.736v5.5h-8.367v-9.39h7.951a18.244 18.244 0 0 1 .416 3.89z" fill="#cdcdcd"/><path d="m17.953 95.736v5.5h8.367v-9.39h-7.951a18.244 18.244 0 0 0 -.416 3.89z" fill="#cdcdcd"/><g fill="#e8e8e8"><circle cx="98.729" cy="15.834" r="3"/><circle cx="47.055" cy="93.847" r="3"/><circle cx="64" cy="93.847" r="3"/><circle cx="80.945" cy="93.847" r="3"/></g></svg>